<svg width="87" height="16" viewBox="0 0 87 16" fill="none" xmlns="http://www.w3.org/2000/svg">
<g opacity="0.5">
<path d="M12.7242 0L11.622 0.416667C10.3813 0.885333 9.5759 1.37 9.04275 1.87533C8.50959 2.38 8.25733 2.93533 8.12753 3.354C7.99708 3.774 7.94516 4.018 7.8573 4.146C7.77875 4.258 7.6443 4.39267 7.21165 4.52067C7.20433 4.51533 7.15175 4.482 7.14975 4.47933H7.12912C6.80087 4.26772 6.43272 4.1259 6.0475 4.06267C4.93992 3.87533 3.78043 4.35933 3.13545 5.396L3.11415 5.41667C2.68694 6.14532 2.51148 6.99471 2.61494 7.83333C2.64889 8.104 2.71678 8.38 2.82328 8.646C2.329 8.67819 1.85026 8.8319 1.42941 9.09353C1.00857 9.35516 0.658589 9.71664 0.41044 10.146H0.389806C-0.421574 11.5807 0.0723096 13.4327 1.51269 14.25H1.53399V14.2707C1.60921 14.3073 2.4958 14.776 3.8217 15.1873C5.14759 15.5987 7.00398 16 9.31299 16C11.622 16 13.4757 15.6147 14.8043 15.208C16.1175 14.8047 16.8557 14.4087 17.1133 14.25L17.1339 14.2293C18.5537 13.4033 19.0322 11.586 18.2155 10.1873H18.2362C17.8744 9.53977 17.2791 9.05533 16.5721 8.83333C16.5721 8.83067 16.5515 8.836 16.5515 8.83333C16.4493 8.45707 16.2734 8.1049 16.0341 7.79727C15.7949 7.48964 15.497 7.23269 15.1577 7.04133C15.2489 6.75 15.3035 6.41133 15.3035 6C15.3035 5.22667 15.0279 4.57533 14.6585 4.104C14.2898 3.63267 13.8451 3.31733 13.4731 3.02067C13.101 2.724 12.8021 2.45067 12.641 2.18733C12.48 1.92467 12.3994 1.674 12.4953 1.16667L12.7242 0ZM11.2266 2.12533C11.2892 2.40333 11.3824 2.67467 11.5182 2.896C11.8323 3.40933 12.2537 3.73467 12.641 4.042C13.0284 4.34867 13.3899 4.64333 13.6188 4.93733C13.8471 5.232 13.9723 5.51333 13.9723 6C13.9723 6.32 13.9357 6.51533 13.8891 6.66667C12.0739 6.40133 10.4858 5.94267 9.31299 5.5C9.07869 5.41133 8.87368 5.318 8.66801 5.22933C8.77983 5.13 8.87901 5.01333 8.95955 4.896C9.25841 4.46067 9.29968 4.03933 9.39619 3.72933C9.4927 3.41933 9.60186 3.172 9.95796 2.83333C10.171 2.63 10.7634 2.36733 11.2266 2.12533ZM5.52699 5.312C5.82119 5.31 6.12271 5.40133 6.40094 5.58333C6.76702 5.83867 7.55245 6.23933 8.85571 6.72933C10.5136 7.35368 12.2371 7.78691 13.9929 8.02067H14.0142C14.4768 8.078 14.8589 8.35133 15.0958 8.75C14.8589 8.794 14.6146 8.85667 14.3883 8.95867C14.355 8.974 14.3184 8.96333 14.2844 8.97867C14.2578 8.98667 14.2532 8.99467 14.2425 9C14.2219 9.01067 14.2012 9.01067 14.1806 9.02067C14.162 9.02867 14.1407 9.052 14.118 9.06267C14.0608 9.08867 13.9776 9.12267 13.8684 9.16667C13.6528 9.258 13.33 9.37533 12.9113 9.5C12.0739 9.74733 10.8572 10 9.31299 10C8.16614 10 7.18636 9.87 6.42157 9.708C6.18195 9.65133 5.95099 9.588 5.73533 9.52133C5.30135 9.38267 4.89799 9.18467 4.90331 9.188C4.25834 8.75267 3.99609 8.22933 3.92553 7.66667C3.85564 7.104 4.01206 6.50533 4.25834 6.08333C4.57051 5.58067 5.03843 5.31733 5.52699 5.312ZM2.84458 9.95867C3.16141 9.93467 3.49422 10.0133 3.80106 10.1873C3.80639 10.19 3.81637 10.206 3.8217 10.2087C3.85831 10.2287 3.9049 10.25 3.94683 10.2707C4.03003 10.3153 4.12588 10.3593 4.25834 10.4167C4.52392 10.5313 4.89067 10.6567 5.36059 10.792C5.52699 10.8387 5.73 10.8907 5.92237 10.9373C5.99292 10.956 6.05748 10.982 6.1307 11C6.13802 11.0027 6.14401 10.9973 6.15133 11C6.41625 11.068 6.67916 11.1273 6.94208 11.1667V11.146C7.72596 11.2731 8.51891 11.3358 9.31299 11.3333C11.0003 11.3333 12.3475 11.0493 13.286 10.7707C13.7566 10.6307 14.1333 10.482 14.3883 10.3753C14.4815 10.3353 14.534 10.2993 14.5966 10.2707H14.6585L14.6798 10.25L14.8043 10.1873C15.631 9.74467 16.6241 10.0073 17.0926 10.8333V10.854C17.5473 11.6327 17.285 12.6407 16.4683 13.104H16.4477V13.1253C16.3958 13.156 15.6469 13.5653 14.4295 13.9373C13.2135 14.31 11.4762 14.6667 9.31299 14.6667C7.14975 14.6667 5.41584 14.3153 4.19577 13.9373C2.99235 13.5627 2.3893 13.2213 2.15767 13.104C2.14702 13.0987 2.14436 13.0887 2.13703 13.0833C1.34096 12.612 1.09402 11.6273 1.55463 10.8127C1.78559 10.4247 2.13171 10.1353 2.53174 10.0207C2.63358 9.992 2.73808 9.966 2.84458 9.95867Z" fill="#524872"/>
<path d="M31.7717 12.4262C32.5445 12.4262 33.1148 12.2712 33.4828 11.9613C33.8508 11.6513 34.0347 11.2519 34.0347 10.763C34.0347 10.3338 33.8937 9.98808 33.6116 9.72578C33.3295 9.46349 32.8818 9.24292 32.2685 9.06408L30.8886 8.65276C30.4593 8.52161 30.0668 8.37258 29.7111 8.20566C29.3676 8.02682 29.0733 7.82414 28.8279 7.59762C28.5826 7.35917 28.3925 7.08495 28.2576 6.77496C28.1349 6.45305 28.0736 6.08346 28.0736 5.66617C28.0736 4.72429 28.4293 3.9851 29.1407 3.44858C29.8644 2.90015 30.8395 2.62593 32.0661 2.62593C32.569 2.62593 33.0351 2.66766 33.4644 2.75112C33.8937 2.82265 34.2617 2.92996 34.5683 3.07303C34.8872 3.20417 35.1325 3.36513 35.3042 3.55589C35.4882 3.73472 35.5802 3.93145 35.5802 4.14605C35.5802 4.34873 35.525 4.52757 35.4146 4.68256C35.3165 4.82563 35.1939 4.94486 35.0467 5.04024C34.74 4.81371 34.3353 4.62295 33.8324 4.46796C33.3417 4.30104 32.7959 4.21758 32.1949 4.21758C31.5203 4.21758 30.999 4.34873 30.631 4.61103C30.263 4.87332 30.079 5.22504 30.079 5.66617C30.079 6.02384 30.2078 6.31595 30.4654 6.54247C30.723 6.75708 31.1462 6.94784 31.7349 7.11475L32.802 7.41878C33.8324 7.71684 34.6296 8.12817 35.1939 8.65276C35.7703 9.16542 36.0586 9.86885 36.0586 10.763C36.0586 11.2399 35.9605 11.6811 35.7642 12.0864C35.5802 12.4799 35.3104 12.8197 34.9547 13.1058C34.599 13.392 34.1513 13.6125 33.6116 13.7675C33.0841 13.9225 32.4831 14 31.8085 14C31.2443 14 30.7291 13.9523 30.263 13.8569C29.7969 13.7616 29.3922 13.6364 29.0487 13.4814C28.7175 13.3264 28.46 13.1475 28.276 12.9449C28.092 12.7422 28 12.5276 28 12.301C28 12.0626 28.0736 11.8599 28.2208 11.693C28.368 11.5261 28.5397 11.4009 28.7359 11.3174C29.0303 11.5797 29.429 11.8301 29.9319 12.0686C30.447 12.307 31.0603 12.4262 31.7717 12.4262Z" fill="#524872"/>
<path d="M43.9746 8.52757C43.9746 7.87183 43.7906 7.39493 43.4226 7.09687C43.0669 6.78689 42.5947 6.63189 42.0059 6.63189C41.6134 6.63189 41.2516 6.69747 40.9204 6.82861C40.6015 6.94784 40.3194 7.09687 40.0741 7.27571V13.7139C39.9882 13.7496 39.8656 13.7794 39.7061 13.8033C39.5589 13.839 39.3933 13.8569 39.2093 13.8569C38.8536 13.8569 38.5899 13.7914 38.4182 13.6602C38.2465 13.5291 38.1606 13.3085 38.1606 12.9985V2.14307C38.2465 2.11922 38.3691 2.08942 38.5286 2.05365C38.6881 2.01788 38.8598 2 39.0438 2C39.3995 2 39.657 2.06557 39.8165 2.19672C39.9882 2.32787 40.0741 2.54843 40.0741 2.85842V5.68405C40.3562 5.54098 40.6812 5.4158 41.0492 5.30849C41.4294 5.18927 41.8526 5.12966 42.3187 5.12966C43.3858 5.12966 44.2444 5.40387 44.8945 5.95231C45.5569 6.50074 45.888 7.33532 45.888 8.45604V13.7139C45.8022 13.7496 45.6795 13.7794 45.5201 13.8033C45.3606 13.839 45.195 13.8569 45.0233 13.8569C44.6553 13.8569 44.3855 13.7914 44.2138 13.6602C44.0543 13.5291 43.9746 13.3085 43.9746 12.9985V8.52757Z" fill="#524872"/>
<path d="M49.9094 10.5127C50.0811 11.1923 50.4123 11.699 50.903 12.0328C51.4058 12.3547 52.0437 12.5156 52.8164 12.5156C53.3316 12.5156 53.8038 12.4382 54.2331 12.2832C54.6624 12.1282 55.0058 11.9613 55.2634 11.7824C55.6069 11.9732 55.7786 12.2414 55.7786 12.5872C55.7786 12.7899 55.6989 12.9806 55.5394 13.1595C55.3799 13.3264 55.1592 13.4754 54.877 13.6066C54.6072 13.7258 54.2822 13.8212 53.9019 13.8927C53.534 13.9642 53.1353 14 52.706 14C51.9946 14 51.3445 13.9046 50.7558 13.7139C50.1793 13.5231 49.6825 13.237 49.2655 12.8554C48.8484 12.4739 48.5234 12.003 48.2904 11.4426C48.0696 10.8823 47.9592 10.2325 47.9592 9.49329C47.9592 8.77794 48.0696 8.15201 48.2904 7.6155C48.5111 7.06706 48.8116 6.61401 49.1919 6.25633C49.5721 5.88674 50.0198 5.60656 50.535 5.4158C51.0501 5.22504 51.6021 5.12966 52.1909 5.12966C52.7796 5.12966 53.3132 5.22504 53.7915 5.4158C54.2822 5.59463 54.6992 5.85097 55.0426 6.1848C55.3983 6.50671 55.6682 6.89419 55.8522 7.34724C56.0484 7.8003 56.1466 8.29508 56.1466 8.83159C56.1466 9.12966 56.073 9.35022 55.9258 9.49329C55.7786 9.62444 55.5639 9.71386 55.2818 9.76155L49.9094 10.5127ZM52.1909 6.57824C51.5162 6.57824 50.952 6.79881 50.4982 7.23994C50.0566 7.68107 49.8236 8.31297 49.799 9.13562L54.3251 8.50969C54.276 7.97317 54.0736 7.52012 53.7179 7.15052C53.3622 6.769 52.8532 6.57824 52.1909 6.57824Z" fill="#524872"/>
<path d="M60.0534 11.2996C60.0534 11.7288 60.1822 12.0328 60.4398 12.2116C60.6973 12.3905 61.0592 12.4799 61.5253 12.4799C61.7338 12.4799 61.9546 12.4501 62.1876 12.3905C62.4207 12.3308 62.6231 12.2593 62.7948 12.1759C62.8806 12.2712 62.9542 12.3785 63.0156 12.4978C63.0891 12.617 63.1259 12.7601 63.1259 12.927C63.1259 13.237 62.9604 13.4933 62.6292 13.696C62.3103 13.8987 61.8196 14 61.1573 14C60.2374 14 59.5014 13.8033 58.9495 13.4098C58.4098 13.0045 58.1399 12.3428 58.1399 11.4247V3.07303C58.2258 3.04918 58.3484 3.01937 58.5079 2.98361C58.6674 2.94784 58.8391 2.92996 59.0231 2.92996C59.3788 2.92996 59.6363 2.99553 59.7958 3.12668C59.9675 3.25782 60.0534 3.47839 60.0534 3.78837V5.55887H62.9052C62.9542 5.6304 62.9972 5.73174 63.034 5.86289C63.083 5.99404 63.1075 6.13115 63.1075 6.27422C63.1075 6.78689 62.8806 7.04322 62.4268 7.04322H60.0534V11.2996Z" fill="#524872"/>
<path d="M66.899 11.2996C66.899 11.7288 67.0277 12.0328 67.2853 12.2116C67.5429 12.3905 67.9047 12.4799 68.3708 12.4799C68.5794 12.4799 68.8001 12.4501 69.0332 12.3905C69.2662 12.3308 69.4686 12.2593 69.6403 12.1759C69.7262 12.2712 69.7998 12.3785 69.8611 12.4978C69.9347 12.617 69.9715 12.7601 69.9715 12.927C69.9715 13.237 69.8059 13.4933 69.4748 13.696C69.1559 13.8987 68.6652 14 68.0029 14C67.0829 14 66.347 13.8033 65.795 13.4098C65.2553 13.0045 64.9855 12.3428 64.9855 11.4247V3.07303C65.0714 3.04918 65.194 3.01937 65.3535 2.98361C65.5129 2.94784 65.6846 2.92996 65.8686 2.92996C66.2243 2.92996 66.4819 2.99553 66.6414 3.12668C66.8131 3.25782 66.899 3.47839 66.899 3.78837V5.55887H69.7507C69.7998 5.6304 69.8427 5.73174 69.8795 5.86289C69.9286 5.99404 69.9531 6.13115 69.9531 6.27422C69.9531 6.78689 69.7262 7.04322 69.2724 7.04322H66.899V11.2996Z" fill="#524872"/>
<path d="M73.2131 10.5127C73.3848 11.1923 73.716 11.699 74.2066 12.0328C74.7095 12.3547 75.3474 12.5156 76.1201 12.5156C76.6353 12.5156 77.1075 12.4382 77.5368 12.2832C77.9661 12.1282 78.3095 11.9613 78.5671 11.7824C78.9106 11.9732 79.0823 12.2414 79.0823 12.5872C79.0823 12.7899 79.0025 12.9806 78.8431 13.1595C78.6836 13.3264 78.4629 13.4754 78.1807 13.6066C77.9109 13.7258 77.5859 13.8212 77.2056 13.8927C76.8376 13.9642 76.439 14 76.0097 14C75.2983 14 74.6482 13.9046 74.0595 13.7139C73.483 13.5231 72.9862 13.237 72.5692 12.8554C72.1521 12.4739 71.8271 12.003 71.594 11.4426C71.3733 10.8823 71.2629 10.2325 71.2629 9.49329C71.2629 8.77794 71.3733 8.15201 71.594 7.6155C71.8148 7.06706 72.1153 6.61401 72.4956 6.25633C72.8758 5.88674 73.3235 5.60656 73.8387 5.4158C74.3538 5.22504 74.9058 5.12966 75.4946 5.12966C76.0833 5.12966 76.6169 5.22504 77.0952 5.4158C77.5859 5.59463 78.0029 5.85097 78.3463 6.1848C78.702 6.50671 78.9719 6.89419 79.1559 7.34724C79.3521 7.8003 79.4502 8.29508 79.4502 8.83159C79.4502 9.12966 79.3767 9.35022 79.2295 9.49329C79.0823 9.62444 78.8676 9.71386 78.5855 9.76155L73.2131 10.5127ZM75.4946 6.57824C74.8199 6.57824 74.2557 6.79881 73.8019 7.23994C73.3603 7.68107 73.1273 8.31297 73.1027 9.13562L77.6288 8.50969C77.5797 7.97317 77.3773 7.52012 77.0216 7.15052C76.6659 6.769 76.1569 6.57824 75.4946 6.57824Z" fill="#524872"/>
<path d="M83.3387 13.7139C83.2528 13.7496 83.1302 13.7794 82.9707 13.8033C82.8235 13.839 82.6579 13.8569 82.4739 13.8569C82.1182 13.8569 81.8545 13.7914 81.6828 13.6602C81.5111 13.5291 81.4252 13.3085 81.4252 12.9985V7.13264C81.4252 6.83458 81.4865 6.59613 81.6092 6.41729C81.7319 6.22653 81.9281 6.04769 82.198 5.88077C82.5537 5.66617 83.0075 5.48733 83.5595 5.34426C84.1114 5.20119 84.7186 5.12966 85.3809 5.12966C86.4603 5.12966 87 5.42772 87 6.02384C87 6.16691 86.9755 6.30402 86.9264 6.43517C86.8773 6.5544 86.8221 6.6617 86.7608 6.75708C86.6382 6.73323 86.4848 6.70939 86.3009 6.68554C86.1169 6.6617 85.9206 6.64978 85.7121 6.64978C85.2215 6.64978 84.7738 6.70343 84.369 6.81073C83.9642 6.90611 83.6208 7.0313 83.3387 7.18629V13.7139Z" fill="#524872"/>
</g>
</svg>
