<svg width="18" height="16" viewBox="0 0 18 16" fill="none" xmlns="http://www.w3.org/2000/svg">
<path d="M16.5 8L14.0002 11M9.75 8H16.5H9.75ZM16.5 8L14.0002 5L16.5 8Z" stroke="#E93737" stroke-width="1.3" stroke-linecap="round" stroke-linejoin="round"/>
<path d="M10.5 4.25004V2.88054C10.5 2.67307 10.4569 2.46786 10.3736 2.27788C10.2902 2.08789 10.1683 1.91727 10.0157 1.77679C9.86299 1.63631 9.68283 1.52903 9.48658 1.46173C9.29033 1.39443 9.08225 1.36857 8.8755 1.38579L2.8755 1.88529C2.50054 1.91652 2.15101 2.08753 1.89622 2.3644C1.64144 2.64127 1.50002 3.00378 1.5 3.38004V12.62C1.50002 12.9963 1.64144 13.3588 1.89622 13.6357C2.15101 13.9126 2.50054 14.0836 2.8755 14.1148L8.8755 14.615C9.08231 14.6323 9.29046 14.6064 9.48676 14.539C9.68306 14.4717 9.86325 14.3643 10.0159 14.2238C10.1686 14.0832 10.2905 13.9125 10.3738 13.7224C10.4571 13.5324 10.5001 13.3271 10.5 13.1195V11.75" stroke="#E93737" stroke-width="1.3" stroke-linecap="round" stroke-linejoin="round"/>
</svg>
