<svg width="16" height="18" viewBox="0 0 16 18" fill="none" xmlns="http://www.w3.org/2000/svg">
<path d="M8 16.5C4.2725 16.5 1.25 14.5635 1.25 11.25V11.184C1.25 9.5955 2.2535 8.325 3.78125 7.5C5.243 6.711 6.107 5.2575 5.891 3.75L5.46875 1.5L7.03325 2.09625C9.851 3.16875 12.1977 5.03025 13.7188 7.39575C14.3875 8.42331 14.7456 9.622 14.75 10.848V11.25C14.75 12.4215 14.372 13.4213 13.7188 14.2238" stroke="#242426" stroke-width="1.2" stroke-linecap="round" stroke-linejoin="round"/>
<path d="M8 16.5C6.75725 16.5 5.75 15.4253 5.75 14.1C5.75 13.05 6.512 12.2093 7.1825 11.439L8 10.5L8.8175 11.439C9.488 12.21 10.25 13.05 10.25 14.1C10.25 15.4253 9.24275 16.5 8 16.5Z" stroke="#242426" stroke-width="1.2" stroke-linecap="round" stroke-linejoin="round"/>
</svg>
