<svg width="86" height="16" viewBox="0 0 86 16" fill="none" xmlns="http://www.w3.org/2000/svg">
<path d="M30.7717 12.4262C31.5445 12.4262 32.1148 12.2712 32.4828 11.9613C32.8508 11.6513 33.0347 11.2519 33.0347 10.763C33.0347 10.3338 32.8937 9.98808 32.6116 9.72578C32.3295 9.46349 31.8818 9.24292 31.2685 9.06408L29.8886 8.65276C29.4593 8.52161 29.0668 8.37258 28.7111 8.20566C28.3676 8.02682 28.0733 7.82414 27.8279 7.59762C27.5826 7.35917 27.3925 7.08495 27.2576 6.77496C27.1349 6.45305 27.0736 6.08346 27.0736 5.66617C27.0736 4.72429 27.4293 3.9851 28.1407 3.44858C28.8644 2.90015 29.8395 2.62593 31.0661 2.62593C31.569 2.62593 32.0351 2.66766 32.4644 2.75112C32.8937 2.82265 33.2617 2.92996 33.5683 3.07303C33.8872 3.20417 34.1325 3.36513 34.3042 3.55589C34.4882 3.73472 34.5802 3.93145 34.5802 4.14605C34.5802 4.34873 34.525 4.52757 34.4146 4.68256C34.3165 4.82563 34.1939 4.94486 34.0467 5.04024C33.74 4.81371 33.3353 4.62295 32.8324 4.46796C32.3417 4.30104 31.7959 4.21758 31.1949 4.21758C30.5203 4.21758 29.999 4.34873 29.631 4.61103C29.263 4.87332 29.079 5.22504 29.079 5.66617C29.079 6.02384 29.2078 6.31595 29.4654 6.54247C29.723 6.75708 30.1462 6.94784 30.7349 7.11475L31.802 7.41878C32.8324 7.71684 33.6296 8.12817 34.1939 8.65276C34.7703 9.16542 35.0586 9.86885 35.0586 10.763C35.0586 11.2399 34.9605 11.6811 34.7642 12.0864C34.5802 12.4799 34.3104 12.8197 33.9547 13.1058C33.599 13.392 33.1513 13.6125 32.6116 13.7675C32.0841 13.9225 31.4831 14 30.8085 14C30.2443 14 29.7291 13.9523 29.263 13.8569C28.7969 13.7616 28.3922 13.6364 28.0487 13.4814C27.7175 13.3264 27.46 13.1475 27.276 12.9449C27.092 12.7422 27 12.5276 27 12.301C27 12.0626 27.0736 11.8599 27.2208 11.693C27.368 11.5261 27.5397 11.4009 27.7359 11.3174C28.0303 11.5797 28.429 11.8301 28.9319 12.0686C29.447 12.307 30.0603 12.4262 30.7717 12.4262Z" fill="#242426"/>
<path d="M42.9746 8.52757C42.9746 7.87183 42.7906 7.39493 42.4226 7.09687C42.0669 6.78689 41.5947 6.63189 41.0059 6.63189C40.6134 6.63189 40.2516 6.69747 39.9204 6.82861C39.6015 6.94784 39.3194 7.09687 39.0741 7.27571V13.7139C38.9882 13.7496 38.8656 13.7794 38.7061 13.8033C38.5589 13.839 38.3933 13.8569 38.2093 13.8569C37.8536 13.8569 37.5899 13.7914 37.4182 13.6602C37.2465 13.5291 37.1606 13.3085 37.1606 12.9985V2.14307C37.2465 2.11922 37.3691 2.08942 37.5286 2.05365C37.6881 2.01788 37.8598 2 38.0438 2C38.3995 2 38.657 2.06557 38.8165 2.19672C38.9882 2.32787 39.0741 2.54843 39.0741 2.85842V5.68405C39.3562 5.54098 39.6812 5.4158 40.0492 5.30849C40.4294 5.18927 40.8526 5.12966 41.3187 5.12966C42.3858 5.12966 43.2444 5.40387 43.8945 5.95231C44.5569 6.50074 44.888 7.33532 44.888 8.45604V13.7139C44.8022 13.7496 44.6795 13.7794 44.5201 13.8033C44.3606 13.839 44.195 13.8569 44.0233 13.8569C43.6553 13.8569 43.3855 13.7914 43.2138 13.6602C43.0543 13.5291 42.9746 13.3085 42.9746 12.9985V8.52757Z" fill="#242426"/>
<path d="M48.9094 10.5127C49.0811 11.1923 49.4123 11.699 49.903 12.0328C50.4058 12.3547 51.0437 12.5156 51.8164 12.5156C52.3316 12.5156 52.8038 12.4382 53.2331 12.2832C53.6624 12.1282 54.0058 11.9613 54.2634 11.7824C54.6069 11.9732 54.7786 12.2414 54.7786 12.5872C54.7786 12.7899 54.6989 12.9806 54.5394 13.1595C54.3799 13.3264 54.1592 13.4754 53.877 13.6066C53.6072 13.7258 53.2822 13.8212 52.9019 13.8927C52.534 13.9642 52.1353 14 51.706 14C50.9946 14 50.3445 13.9046 49.7558 13.7139C49.1793 13.5231 48.6825 13.237 48.2655 12.8554C47.8484 12.4739 47.5234 12.003 47.2904 11.4426C47.0696 10.8823 46.9592 10.2325 46.9592 9.49329C46.9592 8.77794 47.0696 8.15201 47.2904 7.6155C47.5111 7.06706 47.8116 6.61401 48.1919 6.25633C48.5721 5.88674 49.0198 5.60656 49.535 5.4158C50.0501 5.22504 50.6021 5.12966 51.1909 5.12966C51.7796 5.12966 52.3132 5.22504 52.7915 5.4158C53.2822 5.59463 53.6992 5.85097 54.0426 6.1848C54.3983 6.50671 54.6682 6.89419 54.8522 7.34724C55.0484 7.8003 55.1466 8.29508 55.1466 8.83159C55.1466 9.12966 55.073 9.35022 54.9258 9.49329C54.7786 9.62444 54.5639 9.71386 54.2818 9.76155L48.9094 10.5127ZM51.1909 6.57824C50.5162 6.57824 49.952 6.79881 49.4982 7.23994C49.0566 7.68107 48.8236 8.31297 48.799 9.13562L53.3251 8.50969C53.276 7.97317 53.0736 7.52012 52.7179 7.15052C52.3622 6.769 51.8532 6.57824 51.1909 6.57824Z" fill="#242426"/>
<path d="M59.0534 11.2996C59.0534 11.7288 59.1822 12.0328 59.4398 12.2116C59.6973 12.3905 60.0592 12.4799 60.5253 12.4799C60.7338 12.4799 60.9546 12.4501 61.1876 12.3905C61.4207 12.3308 61.6231 12.2593 61.7948 12.1759C61.8806 12.2712 61.9542 12.3785 62.0156 12.4978C62.0891 12.617 62.1259 12.7601 62.1259 12.927C62.1259 13.237 61.9604 13.4933 61.6292 13.696C61.3103 13.8987 60.8196 14 60.1573 14C59.2374 14 58.5014 13.8033 57.9495 13.4098C57.4098 13.0045 57.1399 12.3428 57.1399 11.4247V3.07303C57.2258 3.04918 57.3484 3.01937 57.5079 2.98361C57.6674 2.94784 57.8391 2.92996 58.0231 2.92996C58.3788 2.92996 58.6363 2.99553 58.7958 3.12668C58.9675 3.25782 59.0534 3.47839 59.0534 3.78837V5.55887H61.9052C61.9542 5.6304 61.9972 5.73174 62.034 5.86289C62.083 5.99404 62.1075 6.13115 62.1075 6.27422C62.1075 6.78689 61.8806 7.04322 61.4268 7.04322H59.0534V11.2996Z" fill="#242426"/>
<path d="M65.899 11.2996C65.899 11.7288 66.0277 12.0328 66.2853 12.2116C66.5429 12.3905 66.9047 12.4799 67.3708 12.4799C67.5794 12.4799 67.8001 12.4501 68.0332 12.3905C68.2662 12.3308 68.4686 12.2593 68.6403 12.1759C68.7262 12.2712 68.7998 12.3785 68.8611 12.4978C68.9347 12.617 68.9715 12.7601 68.9715 12.927C68.9715 13.237 68.8059 13.4933 68.4748 13.696C68.1559 13.8987 67.6652 14 67.0029 14C66.0829 14 65.347 13.8033 64.795 13.4098C64.2553 13.0045 63.9855 12.3428 63.9855 11.4247V3.07303C64.0714 3.04918 64.194 3.01937 64.3535 2.98361C64.5129 2.94784 64.6846 2.92996 64.8686 2.92996C65.2243 2.92996 65.4819 2.99553 65.6414 3.12668C65.8131 3.25782 65.899 3.47839 65.899 3.78837V5.55887H68.7507C68.7998 5.6304 68.8427 5.73174 68.8795 5.86289C68.9286 5.99404 68.9531 6.13115 68.9531 6.27422C68.9531 6.78689 68.7262 7.04322 68.2724 7.04322H65.899V11.2996Z" fill="#242426"/>
<path d="M72.2131 10.5127C72.3848 11.1923 72.716 11.699 73.2066 12.0328C73.7095 12.3547 74.3474 12.5156 75.1201 12.5156C75.6353 12.5156 76.1075 12.4382 76.5368 12.2832C76.9661 12.1282 77.3095 11.9613 77.5671 11.7824C77.9106 11.9732 78.0823 12.2414 78.0823 12.5872C78.0823 12.7899 78.0025 12.9806 77.8431 13.1595C77.6836 13.3264 77.4629 13.4754 77.1807 13.6066C76.9109 13.7258 76.5859 13.8212 76.2056 13.8927C75.8376 13.9642 75.439 14 75.0097 14C74.2983 14 73.6482 13.9046 73.0595 13.7139C72.483 13.5231 71.9862 13.237 71.5692 12.8554C71.1521 12.4739 70.8271 12.003 70.594 11.4426C70.3733 10.8823 70.2629 10.2325 70.2629 9.49329C70.2629 8.77794 70.3733 8.15201 70.594 7.6155C70.8148 7.06706 71.1153 6.61401 71.4956 6.25633C71.8758 5.88674 72.3235 5.60656 72.8387 5.4158C73.3538 5.22504 73.9058 5.12966 74.4946 5.12966C75.0833 5.12966 75.6169 5.22504 76.0952 5.4158C76.5859 5.59463 77.0029 5.85097 77.3463 6.1848C77.702 6.50671 77.9719 6.89419 78.1559 7.34724C78.3521 7.8003 78.4502 8.29508 78.4502 8.83159C78.4502 9.12966 78.3767 9.35022 78.2295 9.49329C78.0823 9.62444 77.8676 9.71386 77.5855 9.76155L72.2131 10.5127ZM74.4946 6.57824C73.8199 6.57824 73.2557 6.79881 72.8019 7.23994C72.3603 7.68107 72.1273 8.31297 72.1027 9.13562L76.6288 8.50969C76.5797 7.97317 76.3773 7.52012 76.0216 7.15052C75.6659 6.769 75.1569 6.57824 74.4946 6.57824Z" fill="#242426"/>
<path d="M82.3387 13.7139C82.2528 13.7496 82.1302 13.7794 81.9707 13.8033C81.8235 13.839 81.6579 13.8569 81.4739 13.8569C81.1182 13.8569 80.8545 13.7914 80.6828 13.6602C80.5111 13.5291 80.4252 13.3085 80.4252 12.9985V7.13264C80.4252 6.83458 80.4865 6.59613 80.6092 6.41729C80.7319 6.22653 80.9281 6.04769 81.198 5.88077C81.5537 5.66617 82.0075 5.48733 82.5595 5.34426C83.1114 5.20119 83.7186 5.12966 84.3809 5.12966C85.4603 5.12966 86 5.42772 86 6.02384C86 6.16691 85.9755 6.30402 85.9264 6.43517C85.8773 6.5544 85.8221 6.6617 85.7608 6.75708C85.6382 6.73323 85.4848 6.70939 85.3009 6.68554C85.1169 6.6617 84.9206 6.64978 84.7121 6.64978C84.2215 6.64978 83.7738 6.70343 83.369 6.81073C82.9642 6.90611 82.6208 7.0313 82.3387 7.18629V13.7139Z" fill="#242426"/>
<path fill-rule="evenodd" clip-rule="evenodd" d="M6.14264 10.9664C6.11755 10.9584 6.09254 10.9504 6.06695 10.9432L6.14264 10.9664ZM9.52418 3.97617C9.52971 3.95417 9.53515 3.93248 9.54059 3.91115C9.55688 3.84718 9.5731 3.78637 9.59123 3.72933C9.68975 3.41933 9.80117 3.172 10.1647 2.83333C10.3273 2.68122 10.7067 2.4959 11.0855 2.31087" fill="#7D7499"/>
<path d="M11.4597 2.12533C11.5235 2.40333 11.6186 2.67467 11.7572 2.896C12.0678 3.39311 12.4809 3.71392 12.8658 4.0128L12.9034 4.042C13.2989 4.34867 13.6678 4.64333 13.9015 4.93733C14.1346 5.232 14.2623 5.51333 14.2623 6C14.2623 6.32 14.2249 6.51533 14.1774 6.66667C12.3246 6.40133 10.7035 5.94267 9.5063 5.5C9.32006 5.43095 9.15195 5.35908 8.98753 5.28878C8.94081 5.2688 8.89439 5.24895 8.84793 5.22933C8.96208 5.13 9.06331 5.01333 9.14552 4.896C9.37574 4.56747 9.45621 4.24692 9.52418 3.97617L9.54059 3.91115C9.55688 3.84718 9.5731 3.78637 9.59123 3.72933C9.68975 3.41933 9.80117 3.172 10.1647 2.83333C10.3273 2.68122 10.7067 2.4959 11.0855 2.31087C11.2131 2.24856 11.3405 2.18629 11.4597 2.12533Z" fill="#7D7499"/>
<path d="M5.64172 5.312C5.94202 5.31 6.2498 5.40133 6.5338 5.58333C6.90749 5.83867 7.70921 6.23933 9.03953 6.72933C10.7319 7.35368 12.4911 7.78691 14.2834 8.02067H14.3051C14.7773 8.078 15.1673 8.35133 15.4092 8.75C15.1673 8.794 14.9179 8.85667 14.6869 8.95867C14.6699 8.96634 14.6521 8.9675 14.6341 8.96867C14.6162 8.96984 14.5983 8.97101 14.5809 8.97867C14.5622 8.9842 14.5541 8.98973 14.5473 8.99438C14.5443 8.99646 14.5415 8.99835 14.5381 9C14.5273 9.00551 14.5164 9.00817 14.5055 9.01083C14.4953 9.01333 14.4851 9.01583 14.475 9.02067C14.4656 9.0246 14.4556 9.03224 14.4451 9.04026C14.4342 9.04855 14.4228 9.05725 14.4111 9.06267C14.3527 9.08867 14.2677 9.12267 14.1563 9.16667C13.9362 9.258 13.6066 9.37533 13.1793 9.5C12.3246 9.74733 11.0826 10 9.5063 10C8.33565 10 7.33553 9.87 6.55487 9.708C6.31027 9.65133 6.07451 9.588 5.85438 9.52133C5.4556 9.39651 5.08215 9.2236 5.01555 9.19276C5.00816 9.18934 5.00455 9.18767 5.00509 9.188C4.34673 8.75267 4.07903 8.22933 4.00702 7.66667C3.93568 7.104 4.09534 6.50533 4.34673 6.08333C4.66538 5.58067 5.14302 5.31733 5.64172 5.312Z" fill="#7D7499"/>
<path d="M2.90363 9.95867C3.22703 9.93467 3.56675 10.0133 3.87996 10.1873C3.88268 10.1887 3.88659 10.1933 3.89049 10.198C3.8944 10.2027 3.89831 10.2073 3.90102 10.2087C3.92673 10.2224 3.95727 10.2368 3.98776 10.2512C4.00158 10.2577 4.0154 10.2642 4.02876 10.2707C4.11369 10.3153 4.21152 10.3593 4.34673 10.4167C4.61782 10.5313 4.99219 10.6567 5.47186 10.792C5.64172 10.8387 5.84894 10.8907 6.0453 10.9373C6.05257 10.9392 6.05978 10.9412 6.06695 10.9432C6.09254 10.9504 6.11755 10.9584 6.14264 10.9664C6.18008 10.9783 6.21774 10.9903 6.25796 11C6.26169 11.0013 6.26509 11.0007 6.26849 11C6.27189 10.9993 6.27528 10.9987 6.27902 11C6.54943 11.068 6.81781 11.1273 7.08618 11.1667V11.146C7.88632 11.2731 8.69573 11.3358 9.5063 11.3333C11.2286 11.3333 12.6038 11.0493 13.5618 10.7707C14.0422 10.6307 14.4267 10.482 14.6869 10.3753C14.7427 10.3519 14.7841 10.3298 14.8218 10.3098C14.8484 10.2957 14.8731 10.2825 14.8996 10.2707H14.9628L14.9845 10.25L15.1116 10.1873C15.9554 9.74467 16.9691 10.0073 17.4474 10.8333V10.854C17.9115 11.6327 17.6438 12.6407 16.8101 13.104H16.7891V13.1253C16.7361 13.156 15.9717 13.5653 14.7291 13.9373C13.4877 14.31 11.7144 14.6667 9.5063 14.6667C7.29816 14.6667 5.52825 14.3153 4.28286 13.9373C3.17707 13.6001 2.56788 13.2898 2.28482 13.1456C2.25343 13.1297 2.22606 13.1157 2.20246 13.104C2.1961 13.1009 2.19253 13.0962 2.18916 13.0917C2.18678 13.0886 2.1845 13.0855 2.18139 13.0833C1.3688 12.612 1.11673 11.6273 1.5869 10.8127C1.82266 10.4247 2.17596 10.1353 2.58429 10.0207C2.68825 9.992 2.79492 9.966 2.90363 9.95867Z" fill="#7D7499"/>
<path d="M12.9884 0L11.8632 0.416667C10.5968 0.885333 9.77467 1.37 9.23045 1.87533C8.68623 2.38 8.42873 2.93533 8.29624 3.354C8.16307 3.774 8.11008 4.018 8.02039 4.146C7.94022 4.258 7.80298 4.39267 7.36135 4.52067C7.35388 4.51533 7.3002 4.482 7.29816 4.47933H7.2771C6.94204 4.26772 6.56625 4.1259 6.17303 4.06267C5.04246 3.87533 3.8589 4.35933 3.20054 5.396L3.17879 5.41667C2.74271 6.14532 2.56361 6.99471 2.66922 7.83333C2.70387 8.104 2.77318 8.38 2.88188 8.646C2.37734 8.67819 1.88867 8.8319 1.45909 9.09353C1.0295 9.35516 0.67226 9.71664 0.41896 10.146H0.397898C-0.430324 11.5807 0.0738106 13.4327 1.54409 14.25H1.56583V14.2707C1.64261 14.3073 2.54761 14.776 3.90102 15.1873C5.25444 15.5987 7.14937 16 9.5063 16C11.8632 16 13.7554 15.6147 15.1116 15.208C16.4521 14.8047 17.2056 14.4087 17.4685 14.25L17.4896 14.2293C18.9388 13.4033 19.4273 11.586 18.5936 10.1873H18.6147C18.2455 9.53977 17.6377 9.05533 16.9161 8.83333C16.9161 8.83067 16.8951 8.836 16.8951 8.83333C16.7907 8.45707 16.6112 8.1049 16.3669 7.79727C16.1227 7.48964 15.8186 7.23269 15.4724 7.04133C15.5654 6.75 15.6211 6.41133 15.6211 6C15.6211 5.22667 15.3399 4.57533 14.9628 4.104C14.5864 3.63267 14.1325 3.31733 13.7527 3.02067C13.3729 2.724 13.0679 2.45067 12.9034 2.18733C12.739 1.92467 12.6568 1.674 12.7546 1.16667L12.9884 0ZM11.4597 2.12533C11.5235 2.40333 11.6186 2.67467 11.7572 2.896C12.0779 3.40933 12.508 3.73467 12.9034 4.042C13.2989 4.34867 13.6678 4.64333 13.9015 4.93733C14.1346 5.232 14.2623 5.51333 14.2623 6C14.2623 6.32 14.2249 6.51533 14.1774 6.66667C12.3246 6.40133 10.7035 5.94267 9.5063 5.5C9.26714 5.41133 9.05788 5.318 8.84793 5.22933C8.96208 5.13 9.06331 5.01333 9.14552 4.896C9.45059 4.46067 9.49271 4.03933 9.59123 3.72933C9.68975 3.41933 9.80117 3.172 10.1647 2.83333C10.3821 2.63 10.9868 2.36733 11.4597 2.12533ZM5.64172 5.312C5.94202 5.31 6.2498 5.40133 6.5338 5.58333C6.90749 5.83867 7.70921 6.23933 9.03953 6.72933C10.7319 7.35368 12.4911 7.78691 14.2834 8.02067H14.3051C14.7773 8.078 15.1673 8.35133 15.4092 8.75C15.1673 8.794 14.9179 8.85667 14.6869 8.95867C14.653 8.974 14.6156 8.96333 14.5809 8.97867C14.5538 8.98667 14.549 8.99467 14.5381 9C14.5171 9.01067 14.496 9.01067 14.475 9.02067C14.4559 9.02867 14.4342 9.052 14.4111 9.06267C14.3527 9.08867 14.2677 9.12267 14.1563 9.16667C13.9362 9.258 13.6066 9.37533 13.1793 9.5C12.3246 9.74733 11.0826 10 9.5063 10C8.33565 10 7.33553 9.87 6.55487 9.708C6.31027 9.65133 6.07451 9.588 5.85438 9.52133C5.41139 9.38267 4.99966 9.18467 5.00509 9.188C4.34673 8.75267 4.07903 8.22933 4.00702 7.66667C3.93568 7.104 4.09534 6.50533 4.34673 6.08333C4.66538 5.58067 5.14302 5.31733 5.64172 5.312ZM2.90363 9.95867C3.22703 9.93467 3.56675 10.0133 3.87996 10.1873C3.8854 10.19 3.89559 10.206 3.90102 10.2087C3.93839 10.2287 3.98595 10.25 4.02876 10.2707C4.11369 10.3153 4.21152 10.3593 4.34673 10.4167C4.61782 10.5313 4.99219 10.6567 5.47186 10.792C5.64172 10.8387 5.84894 10.8907 6.0453 10.9373C6.11732 10.956 6.18322 10.982 6.25796 11C6.26543 11.0027 6.27155 10.9973 6.27902 11C6.54943 11.068 6.81781 11.1273 7.08618 11.1667V11.146C7.88632 11.2731 8.69573 11.3358 9.5063 11.3333C11.2286 11.3333 12.6038 11.0493 13.5618 10.7707C14.0422 10.6307 14.4267 10.482 14.6869 10.3753C14.7821 10.3353 14.8357 10.2993 14.8996 10.2707H14.9628L14.9845 10.25L15.1116 10.1873C15.9554 9.74467 16.9691 10.0073 17.4474 10.8333V10.854C17.9115 11.6327 17.6438 12.6407 16.8101 13.104H16.7891V13.1253C16.7361 13.156 15.9717 13.5653 14.7291 13.9373C13.4877 14.31 11.7144 14.6667 9.5063 14.6667C7.29816 14.6667 5.52825 14.3153 4.28286 13.9373C3.05446 13.5627 2.4389 13.2213 2.20246 13.104C2.19159 13.0987 2.18887 13.0887 2.18139 13.0833C1.3688 12.612 1.11673 11.6273 1.5869 10.8127C1.82266 10.4247 2.17596 10.1353 2.58429 10.0207C2.68825 9.992 2.79492 9.966 2.90363 9.95867Z" fill="#524872"/>
</svg>
