<svg width="288" height="347" viewBox="0 0 288 347" fill="none" xmlns="http://www.w3.org/2000/svg">
<path d="M197.076 152.953L105.313 230.335L99.3621 114.036C99.3621 114.036 138.699 103.497 139.645 103.242C144.312 101.979 162.29 103.139 169.121 112.68C169.121 112.68 198.121 150.172 197.076 152.953Z" fill="#7D7499"/>
<path d="M188.914 139.306L246.538 240.479L227.822 251.447C227.822 251.447 166.676 178.199 166.932 176.666C167.189 175.13 188.914 139.306 188.914 139.306Z" fill="#7D7499"/>
<g opacity="0.199997">
<g opacity="0.199997">
<path opacity="0.199997" d="M164.979 139.337C168.796 138.38 172.903 140.036 175.787 142.716C178.668 145.396 180.531 148.976 182.177 152.55C185.256 159.236 187.787 166.173 189.739 173.27C190.777 177.054 191.782 181.113 194.652 183.791C197.588 186.532 201.815 187.214 205.619 188.5C215.957 191.994 224.245 201.01 226.857 211.604C229.47 222.199 224.388 230.996 217.08 238.815L190.794 197.527L165.6 149.504L164.979 139.337Z" fill="#242426"/>
</g>
</g>
<path d="M163.88 121.68C164.072 121.667 164.541 126.9 164.929 133.365C165.319 139.831 165.478 145.081 165.287 145.091C165.096 145.103 164.626 139.872 164.236 133.406C163.849 126.942 163.688 121.691 163.88 121.68Z" fill="#242426"/>
<path d="M139.718 104.597C139.76 104.586 139.902 104.936 140.064 105.598C140.227 106.259 140.376 107.241 140.385 108.467C140.426 110.89 139.706 114.397 137.419 117.431C135.123 120.458 131.943 122.103 129.599 122.725C128.417 123.048 127.433 123.173 126.751 123.195C126.072 123.22 125.695 123.177 125.695 123.136C125.685 123.006 127.198 123.001 129.457 122.256C131.69 121.535 134.681 119.891 136.865 117.011C139.04 114.127 139.809 110.804 139.895 108.455C140 106.08 139.591 104.622 139.718 104.597Z" fill="#242426"/>
<path d="M139.962 133.654C139.777 133.607 140.09 131.782 140.66 129.579C141.232 127.374 141.845 125.63 142.03 125.677C142.216 125.725 141.904 127.549 141.332 129.752C140.761 131.957 140.148 133.703 139.962 133.654Z" fill="#FAFAFA"/>
<path d="M158.079 135.725C157.953 135.859 156.314 134.5 154.723 132.428C153.124 130.36 152.227 128.429 152.39 128.341C152.563 128.244 153.709 129.983 155.272 132.004C156.828 134.031 158.219 135.582 158.079 135.725Z" fill="#FAFAFA"/>
<path d="M157.348 116.373C157.349 116.559 155.398 116.708 153.022 116.37C150.645 116.041 148.81 115.36 148.863 115.182C148.916 114.991 150.793 115.361 153.118 115.683C155.441 116.013 157.35 116.175 157.348 116.373Z" fill="#FAFAFA"/>
<path d="M177.817 140.092C177.625 140.03 178.051 138.304 178.272 136.145C178.508 133.987 178.453 132.211 178.653 132.19C178.833 132.164 179.206 133.974 178.963 136.219C178.732 138.464 177.987 140.157 177.817 140.092Z" fill="#FAFAFA"/>
<path d="M203.493 185.167C203.428 185.347 201.716 184.885 199.671 184.136C197.624 183.385 196.02 182.631 196.085 182.452C196.151 182.271 197.864 182.733 199.909 183.484C201.954 184.234 203.56 184.988 203.493 185.167Z" fill="#FAFAFA"/>
<path d="M228.538 238.078C228.347 238.03 228.734 235.912 229.124 233.295C229.521 230.679 229.774 228.542 229.972 228.551C230.158 228.56 230.214 230.743 229.81 233.398C229.414 236.054 228.718 238.126 228.538 238.078Z" fill="#FAFAFA"/>
<path d="M102.91 74.7203C97.9282 66.757 95.2331 51.8975 99.3262 43.1563C103.42 34.4134 112.68 27.5385 121.649 23.9703C123.149 23.3739 124.784 22.868 126.355 23.2381C127.924 23.6099 129.313 25.1745 128.931 26.7428C130.604 25.2605 132.319 23.752 134.384 22.8964C136.449 22.0421 138.967 21.9457 140.807 23.2156C142.645 24.4858 143.384 27.348 141.951 29.0639C144.387 27.6798 147.637 27.8884 149.875 29.5746C152.114 31.2592 153.213 34.3258 152.556 37.0501C151.926 39.6578 150.175 42.7485 148.526 44.8659C146.876 46.9811 146.866 48.8914 147.63 51.464" fill="#242426"/>
<path d="M148.345 51.8267C146.523 38.9006 135.08 29.5449 122.049 30.3172L120.754 30.3949C106.84 32.0417 100.466 44.78 102.497 58.6429L109.008 109.641C110.092 118.128 117.768 124.188 126.276 123.275C135.107 122.326 141.398 114.244 140.155 105.45C139.724 102.396 139.404 100.094 139.397 99.9615C139.397 99.9615 152.695 97.0747 152.061 83.6437C151.756 77.1577 150.039 63.8514 148.345 51.8267Z" fill="#FBE3D8"/>
<path d="M139.397 99.9613C139.397 99.9613 130.966 100.962 121.615 95.8363C121.615 95.8363 126.518 105.2 139.838 103.193L139.397 99.9613Z" fill="#E7B7A4"/>
<path d="M144.968 61.0301C145.064 62.0395 144.288 62.9543 143.235 63.0748C142.183 63.1925 141.252 62.473 141.157 61.4632C141.06 60.4538 141.836 59.539 142.888 59.4188C143.94 59.2983 144.872 60.0203 144.968 61.0301Z" fill="#242426"/>
<path d="M145.851 58.5664C145.628 58.8305 144.113 57.8437 142.05 57.9712C139.989 58.0693 138.538 59.2215 138.3 58.9816C138.183 58.8762 138.398 58.4101 139.028 57.892C139.649 57.3764 140.728 56.8443 142.012 56.7735C143.298 56.7037 144.407 57.112 145.056 57.559C145.721 58.0078 145.963 58.4481 145.851 58.5664Z" fill="#242426"/>
<path d="M124.782 62.9353C124.879 63.9447 124.102 64.8595 123.051 64.9784C121.998 65.0977 121.066 64.3782 120.971 63.3685C120.876 62.3587 121.651 61.4443 122.704 61.3237C123.755 61.2035 124.687 61.9256 124.782 62.9353Z" fill="#242426"/>
<path d="M125.602 60.1585C125.378 60.4226 123.862 59.4348 121.801 59.5632C119.74 59.6613 118.289 60.8135 118.051 60.5737C117.934 60.4669 118.147 60.0025 118.779 59.4841C119.399 58.9671 120.479 58.4364 121.763 58.3656C123.049 58.2958 124.156 58.7044 124.807 59.1511C125.469 59.6005 125.712 60.0405 125.602 60.1585Z" fill="#242426"/>
<path d="M133.998 75.007C133.98 74.8902 135.249 74.593 137.311 74.2048C137.835 74.1184 138.327 73.9836 138.394 73.6193C138.495 73.2304 138.241 72.6775 137.951 72.0788C137.378 70.8339 136.78 69.5282 136.154 68.161C133.65 62.5816 131.805 57.9796 132.03 57.8807C132.257 57.7828 134.468 62.2244 136.971 67.8054C137.576 69.1824 138.154 70.4948 138.704 71.7515C138.938 72.3374 139.321 72.9953 139.1 73.8015C138.981 74.2032 138.611 74.5122 138.28 74.6228C137.948 74.7465 137.651 74.7693 137.392 74.8014C135.308 75.037 134.013 75.1245 133.998 75.007Z" fill="#242426"/>
<path d="M128.013 76.7952C128.348 76.7553 128.485 78.9947 130.496 80.47C132.503 81.9489 134.875 81.5548 134.911 81.8683C134.95 82.0054 134.406 82.3334 133.4 82.4209C132.413 82.5141 130.951 82.2832 129.722 81.3798C128.496 80.4758 127.915 79.2054 127.783 78.2911C127.642 77.3613 127.859 76.791 128.013 76.7952Z" fill="#242426"/>
<path d="M125.653 52.0444C125.484 52.6171 123.408 52.4748 121.007 52.911C118.595 53.2964 116.687 54.1225 116.335 53.6384C116.177 53.4059 116.486 52.8593 117.243 52.2686C117.992 51.68 119.211 51.0913 120.653 50.8416C122.096 50.597 123.44 50.7491 124.341 51.0541C125.252 51.3596 125.724 51.7728 125.653 52.0444Z" fill="#242426"/>
<path d="M144.737 52.6439C144.403 53.1336 142.953 52.7327 141.244 52.8097C139.531 52.8298 138.107 53.3133 137.745 52.843C137.585 52.6141 137.785 52.1311 138.39 51.65C138.987 51.17 140.007 50.7476 141.183 50.7139C142.359 50.6806 143.402 51.0443 144.025 51.4889C144.658 51.935 144.883 52.4047 144.737 52.6439Z" fill="#242426"/>
<path d="M104.184 68.5137C103.95 68.4287 94.8008 66.3361 95.6405 75.4921C96.4796 84.651 105.501 81.919 105.491 81.6552C105.484 81.3908 104.184 68.5137 104.184 68.5137Z" fill="#FBE3D8"/>
<path d="M102.377 78.4422C102.334 78.4164 102.227 78.568 101.969 78.7172C101.716 78.8621 101.273 78.9863 100.78 78.8494C99.7799 78.5846 98.8235 77.1223 98.627 75.4771C98.5283 74.6449 98.6305 73.8363 98.8651 73.1508C99.0833 72.456 99.4733 71.9485 99.953 71.8172C100.427 71.6611 100.799 71.9203 100.935 72.1684C101.08 72.4137 101.04 72.6013 101.089 72.6115C101.117 72.633 101.271 72.4412 101.162 72.0688C101.11 71.8909 100.982 71.685 100.751 71.5288C100.514 71.3701 100.182 71.3084 99.8472 71.3762C99.146 71.4895 98.5683 72.1979 98.3099 72.949C98.0135 73.7076 97.879 74.6174 97.9915 75.5521C98.2194 77.3918 99.3227 79.0315 100.681 79.2929C101.341 79.4018 101.86 79.1592 102.118 78.9175C102.381 78.6647 102.41 78.4569 102.377 78.4422Z" fill="#E7B7A4"/>
<path d="M152.614 33.9944C154.763 45.7701 140.589 52.0553 133.568 45.9996C130.32 43.1993 127.384 39.5966 123.216 38.5806C120.412 37.8965 117.389 38.6748 114.949 40.2175C114.924 40.2324 114.9 40.2484 114.876 40.2646C111.283 42.5677 109.451 47.1404 109.247 51.4024C108.967 57.3481 110.376 62.4394 109.342 67.969C109.193 68.7639 109.01 69.6205 108.399 70.1498C107.364 71.0499 105.7 70.4934 104.695 69.5604C103.087 68.0645 102.365 65.8602 101.85 63.7262C100.676 58.8628 100.249 53.776 101.053 48.8383C101.856 43.8997 103.936 39.1142 107.342 35.4491C111.596 30.8667 117.786 28.2541 124.032 27.9789C130.277 27.7024 136.534 29.6826 141.738 33.1456C144.153 34.7525 146.407 36.7341 147.759 39.301" fill="#242426"/>
<path d="M142.323 28.3442C142.318 28.3178 142.77 28.1941 143.595 28.2821C144.414 28.3663 145.606 28.7551 146.774 29.6928C147.925 30.624 149.049 32.1339 149.466 34.0982C149.884 36.0637 149.423 38.339 148.262 40.2913C147.095 42.2496 145.395 43.7155 143.658 44.606C141.923 45.5155 140.203 45.9433 138.763 46.169C137.316 46.3812 136.136 46.402 135.326 46.3749C134.513 46.3469 134.069 46.2796 134.07 46.2337C134.067 46.1047 135.871 46.2011 138.678 45.6769C140.07 45.395 141.714 44.9294 143.349 44.0319C144.984 43.1561 146.559 41.7637 147.654 39.9312C148.74 38.1066 149.174 36.0122 148.826 34.2228C148.481 32.428 147.489 30.9893 146.451 30.0734C145.399 29.1528 144.314 28.7147 143.549 28.5539C142.777 28.3867 142.325 28.4154 142.323 28.3442Z" fill="#524872"/>
<path d="M135.814 24.707C135.808 24.6728 136.14 24.5741 136.702 24.7826C137.243 24.9896 137.97 25.5802 138.307 26.6066C138.643 27.6401 138.438 28.9444 137.927 30.1758C137.414 31.4093 136.705 32.7078 135.737 33.9072C133.822 36.3363 131.41 37.8896 129.566 38.6541C127.716 39.4508 126.458 39.5463 126.448 39.4799C126.416 39.3559 127.619 39.0889 129.355 38.2C131.091 37.3441 133.349 35.7935 135.184 33.4702C136.108 32.321 136.805 31.0867 137.326 29.9256C137.842 28.7713 138.054 27.6322 137.826 26.745C137.598 25.8565 137.026 25.2811 136.581 25.0301C136.128 24.7735 135.81 24.7662 135.814 24.707Z" fill="#524872"/>
<path d="M131.797 237.97C133.086 237.737 189.473 200.264 189.473 200.264C189.473 200.264 215.906 186.501 223.999 203.655C232.092 220.809 208.777 249.966 208.777 249.966L164.29 289.61L132.005 275.836L131.606 258.951L131.797 237.97Z" fill="#FBE3D8"/>
<path d="M160.656 254.959L131.823 285.159C130.093 286.972 130.092 289.821 131.819 291.636L164.495 323.419C164.495 323.419 169.393 325.503 155.873 298.909L181.5 274.274L160.656 254.959Z" fill="#ECECEC"/>
<path d="M174.237 238.086C174.388 238.206 171.514 242.082 167.82 246.743C164.124 251.407 161.007 255.089 160.856 254.97C160.706 254.852 163.579 250.976 167.275 246.311C170.97 241.651 174.087 237.968 174.237 238.086Z" fill="#E7B7A4"/>
<path d="M146.327 265.493C150.776 246.461 153.383 222.602 154.957 196.043L176.05 240.896L188.144 266.617L209.734 257.587L178.722 158.435C178.722 158.435 168.172 139.11 149.877 142.728C134.116 145.846 122.841 158.538 118.723 181.823C114.608 205.11 107.752 223.957 107.752 223.957L146.327 265.493Z" fill="#FBE3D8"/>
<path d="M76.4155 296.554C76.4155 296.554 103.342 307.643 129.131 288.061L147.078 267.489C147.078 267.489 138.13 242.518 128.13 233.628L122.235 236.902L125.037 230.508L110.256 217.631L89.7406 252.52L76.4155 296.554Z" fill="#524872"/>
<path d="M154.488 203.422C154.512 203.425 154.51 203.641 154.484 204.051C154.443 204.541 154.395 205.131 154.338 205.839C154.193 207.501 154.001 209.718 153.768 212.406C153.302 217.954 152.846 225.632 152.106 234.106C151.369 242.581 150.274 250.234 148.95 255.663C148.642 257.024 148.324 258.247 147.998 259.308C147.694 260.374 147.427 261.292 147.15 262.022C146.907 262.691 146.703 263.249 146.534 263.711C146.387 264.094 146.299 264.291 146.276 264.282C146.255 264.274 146.299 264.062 146.402 263.665C146.538 263.193 146.697 262.625 146.893 261.942C147.129 261.202 147.358 260.278 147.623 259.206C147.91 258.141 148.195 256.917 148.471 255.556C149.665 250.127 150.677 242.504 151.414 234.043C152.153 225.587 152.689 217.905 153.279 212.362C153.572 209.59 153.835 207.35 154.069 205.808C154.178 205.105 154.269 204.52 154.344 204.033C154.415 203.629 154.464 203.419 154.488 203.422Z" fill="#E7B7A4"/>
<path d="M158.058 202.639C158.1 202.617 158.388 203.098 158.867 203.989C159.347 204.879 160.018 206.178 160.83 207.792C162.455 211.018 164.642 215.505 166.97 220.501C169.302 225.498 171.327 230.063 172.712 233.403C173.397 235.075 173.944 236.431 174.287 237.382C174.637 238.332 174.809 238.866 174.763 238.884C174.72 238.902 174.463 238.404 174.038 237.488C173.557 236.435 172.964 235.136 172.261 233.599C170.68 230.18 168.62 225.722 166.342 220.795C164.05 215.872 161.978 211.421 160.388 208.006C159.69 206.464 159.102 205.16 158.624 204.108C158.221 203.181 158.015 202.66 158.058 202.639Z" fill="#E7B7A4"/>
<path d="M199.164 227.811C198.979 227.863 196.131 218.248 192.803 206.338C189.473 194.426 186.924 184.728 187.109 184.677C187.294 184.625 190.142 194.238 193.471 206.152C196.8 218.061 199.35 227.758 199.164 227.811Z" fill="#E7B7A4"/>
<path d="M173.797 239.624L191.055 276.336C192.405 279.205 202.07 292.712 205 291.5L219 274L237.5 261C237.5 261 242.742 256.927 213.061 259.941L200.245 227.252L173.797 239.624Z" fill="#7D7499"/>
<g opacity="0.199997">
<g opacity="0.199997">
<path opacity="0.199997" d="M158.756 162.571C152.001 163.768 147.223 173.55 148.91 180.516C149.094 181.273 149.338 182.036 149.825 182.647C150.308 183.256 151.078 183.687 151.85 183.587C152.972 183.439 154.097 182.355 154.163 181.223C154.227 180.094 154.333 179.029 153.999 177.949C151.812 170.862 154.056 165.447 158.696 162.347" fill="#242426"/>
</g>
</g>
<path d="M230.053 250.095L238 261L274 254C274 254 273.681 249.554 265.719 250.884L251.117 253.338L244.25 241.821L230.053 250.095Z" fill="#FBE3D8"/>
<path d="M108.609 105.962C108.609 105.962 84.4921 117.205 78.4971 131.784C73.7382 143.356 60.3403 204.573 55.0175 229.326C53.3655 237.003 52.9993 244.899 54.0132 252.686C56.1801 269.35 61.9801 296.189 76.868 296.433C76.868 296.433 90.505 284.055 93.7571 265.89C94.2491 263.141 94.8659 260.416 95.7688 257.773L102.142 239.135C102.142 239.135 110.548 222.828 113.265 210.502C116.228 197.059 118.187 188.167 118.187 188.167L119.177 181.703L109.398 112.048L108.609 105.962Z" fill="#7D7499"/>
<path d="M106.231 164.644C106.291 164.806 103.394 165.391 100.072 164.198C96.7392 163.042 94.8516 160.767 95.0005 160.679C95.1416 160.516 97.1465 162.455 100.304 163.544C103.444 164.678 106.223 164.429 106.231 164.644Z" fill="#242426"/>
<path d="M78.9346 218.923C78.9222 218.876 79.5712 218.64 80.7517 218.255C81.3444 218.071 82.0652 217.835 82.8864 217.51C83.7075 217.195 84.6599 216.881 85.668 216.419C87.7196 215.58 90.0871 214.412 92.6279 212.962C95.1443 211.473 97.8209 209.681 100.448 207.559C103.056 205.414 105.351 203.154 107.317 200.988C109.249 198.792 110.87 196.707 112.104 194.867C112.762 193.972 113.26 193.103 113.737 192.362C114.22 191.624 114.595 190.964 114.895 190.421C115.509 189.343 115.872 188.755 115.915 188.776C115.958 188.796 115.679 189.426 115.133 190.55C114.869 191.115 114.526 191.797 114.07 192.56C113.623 193.323 113.149 194.219 112.514 195.139C111.321 197.029 109.724 199.167 107.796 201.411C105.836 203.624 103.525 205.926 100.886 208.098C98.2285 210.244 95.5093 212.042 92.9451 213.518C90.3605 214.953 87.9448 216.086 85.8519 216.873C84.8233 217.31 83.8504 217.594 83.0113 217.879C82.1731 218.171 81.4367 218.369 80.8282 218.515C79.6186 218.822 78.9458 218.969 78.9346 218.923Z" fill="#242426"/>
<path d="M70.9369 261.811C70.897 261.806 70.9065 261.177 71.044 260.047C71.1777 258.918 71.4886 257.291 72.0989 255.344C73.285 251.466 75.9708 246.262 80.6543 242.068C85.342 237.875 90.8122 235.782 94.7961 235.031C96.8006 234.64 98.4498 234.51 99.5878 234.502C100.726 234.491 101.353 234.551 101.351 234.593C101.359 234.736 98.8255 234.619 94.8999 235.511C91.0035 236.373 85.6926 238.493 81.1174 242.586C76.5464 246.679 73.8517 251.722 72.564 255.498C71.2446 259.302 71.0796 261.833 70.9369 261.811Z" fill="#242426"/>
<path d="M104.312 229.622C104.368 229.812 100.403 231.126 95.5623 232.874C90.7185 234.615 86.826 236.13 86.7483 235.948C86.7116 235.862 87.6396 235.369 89.1849 234.677C90.7286 233.983 92.8959 233.097 95.3265 232.221C97.7592 231.347 99.9927 230.646 101.624 230.196C103.257 229.745 104.286 229.533 104.312 229.622Z" fill="#242426"/>
<g opacity="0.199997">
<g opacity="0.199997">
<path opacity="0.199997" d="M101.689 239.256C102.022 239.31 102.02 236.005 101.352 234.593C95.8162 233.855 93.3149 236.147 89.6697 236.581C89.2094 236.635 85.1137 239.7 84.7628 239.395C84.0861 238.812 86.8576 236.127 87.6478 235.707C93.7959 232.44 99.034 230.224 102.589 226.532C104.858 224.178 105.626 222.585 105.782 219.319C105.889 217.03 105.999 214.74 106.107 212.451C106.168 211.175 105.93 209.494 104.672 209.268C103.749 209.101 102.97 209.891 102.257 210.501C101.545 211.113 100.373 211.565 99.7558 210.858C98.9946 209.985 100.08 208.746 101.018 208.07C110.109 201.525 115.182 189.806 113.733 178.7L110.963 170.301L119.104 182.076L112.812 210.623C109.884 221.428 106.105 230.856 101.689 239.256Z" fill="#242426"/>
</g>
</g>
<path d="M85.3963 183.432C85.2143 183.494 83.8796 180.059 82.4114 175.759C80.9444 171.459 79.9021 167.924 80.0841 167.861C80.2651 167.8 81.6011 171.236 83.0693 175.536C84.536 179.834 85.5787 183.37 85.3963 183.432Z" fill="#FAFAFA"/>
<path d="M103.378 186.29C103.556 186.36 102.795 188.772 101.676 191.678C100.557 194.587 99.5047 196.888 99.326 196.819C99.1463 196.751 99.9088 194.337 101.028 191.431C102.147 188.522 103.198 186.221 103.378 186.29Z" fill="#FAFAFA"/>
<path d="M86.4415 214.54C86.2846 214.649 85.3444 213.572 84.3418 212.133C83.3402 210.693 82.6548 209.438 82.8133 209.329C82.9703 209.22 83.9092 210.297 84.9131 211.736C85.9144 213.175 86.5998 214.43 86.4415 214.54Z" fill="#FAFAFA"/>
<path d="M76.0582 230.438C76.2382 230.528 75.407 232.47 74.7306 234.963C74.0406 237.452 73.7653 239.546 73.5642 239.532C73.383 239.526 73.349 237.348 74.0616 234.779C74.7609 232.206 75.8992 230.35 76.0582 230.438Z" fill="#FAFAFA"/>
<path d="M69.8024 220.997C69.6385 221.097 68.2738 219.131 66.7543 216.607C65.2331 214.083 64.1346 211.956 64.2985 211.857C64.4641 211.759 65.8283 213.723 67.3495 216.248C68.8677 218.771 69.9676 220.898 69.8024 220.997Z" fill="#FAFAFA"/>
<path d="M82.3225 191.902C82.4007 192.07 80.4428 193.135 77.8351 193.969C75.2279 194.81 73.0151 195.082 72.9813 194.899C72.9418 194.706 75.0594 194.134 77.6218 193.307C80.1871 192.49 82.2422 191.721 82.3225 191.902Z" fill="#FAFAFA"/>
<path d="M102.947 173.756C102.747 173.758 102.594 172.378 102.278 170.712C101.97 169.043 101.614 167.7 101.8 167.631C101.971 167.56 102.638 168.846 102.96 170.583C103.288 172.32 103.132 173.76 102.947 173.756Z" fill="#FAFAFA"/>
<path d="M91.6583 147.332C91.7567 147.488 90.1014 148.682 87.7909 149.647C85.4838 150.618 83.4704 150.96 83.4279 150.781C83.379 150.589 85.2688 149.955 87.5223 149.005C89.7786 148.065 91.5558 147.161 91.6583 147.332Z" fill="#FAFAFA"/>
<path d="M237.7 110.302L223.03 129.241L216.127 134.84L220.804 120.932L232.912 106.448C233.986 105.164 235.892 104.975 237.198 106.026C238.502 107.075 238.726 108.978 237.7 110.302Z" fill="#242426"/>
<path d="M173.612 162.734C174.444 162.511 196.926 145.861 197.11 144.327C197.292 142.791 195.994 139.093 200.614 136.37C205.234 133.644 209.918 130.51 209.918 130.51L220.42 118.59C220.42 118.59 224.305 118.808 222.103 123.491C220.693 126.497 219.217 128.643 217.725 130.881C216.835 132.215 218.811 132.665 218.811 132.665L233.452 115.098C233.452 115.098 234.365 119.61 232.225 124.938L230.621 128.934C230.621 128.934 233.325 132.37 230.612 136.664C227.9 140.956 224.439 151.053 218.414 152.966C212.388 154.877 208.23 156.448 208.23 156.448L180.668 180.453L173.612 162.734Z" fill="#FBE3D8"/>
<path d="M231.132 127.448C231.284 127.565 229.762 129.807 227.732 132.457C225.702 135.108 223.934 137.162 223.782 137.044C223.629 136.927 225.152 134.685 227.182 132.036C229.21 129.386 230.979 127.333 231.132 127.448Z" fill="#E7B7A4"/>
<path d="M88.9403 121.533C88.9403 121.533 102.413 109.587 113.424 112.656C122.224 115.11 133.011 133.725 141.104 143.257C143.141 145.653 146.507 146.951 147.875 147.888C154.68 152.548 158.755 162.571 158.755 162.571L192.921 146.339L202.917 168.209C202.917 168.209 174.907 203.83 153.153 203.168C130.551 202.483 116.819 178.904 116.819 178.904L88.9403 121.533Z" fill="#7D7499"/>
<path d="M154.245 178.586C154.236 178.59 154.194 178.496 154.121 178.306C154.04 178.09 153.937 177.813 153.804 177.461C153.663 177.086 153.482 176.622 153.374 176.038C153.241 175.464 153.071 174.797 153.035 174.019C152.877 172.484 152.97 170.499 153.839 168.396C154.683 166.302 156.248 164.106 158.656 162.409L158.662 162.406L158.676 162.4C167.214 158.311 178.959 152.689 192.791 146.067L193.067 145.934L193.196 146.214C196.27 152.917 199.656 160.299 203.22 168.071L203.31 168.265L203.172 168.426C197.227 175.372 190.507 182.635 182.64 189.124C181.911 189.723 181.182 190.321 180.457 190.917C179.726 191.506 178.956 192.041 178.21 192.603C177.457 193.154 176.719 193.72 175.957 194.251C175.181 194.759 174.409 195.265 173.639 195.771C172.125 196.825 170.484 197.651 168.92 198.57C168.122 199.002 167.291 199.369 166.484 199.768C165.678 200.172 164.862 200.547 164.019 200.85C160.724 202.232 157.275 203.15 153.825 203.428C150.385 203.741 146.925 203.252 143.834 202.135C137.591 199.973 132.362 196.32 128.07 192.401C123.765 188.458 120.326 184.225 117.42 180.229C114.522 176.221 112.114 172.455 109.991 169.157C107.875 165.857 106.05 163.016 104.509 160.729C102.973 158.438 101.72 156.7 100.874 155.521C100.46 154.955 100.137 154.514 99.8963 154.187C99.6801 153.884 99.5726 153.725 99.5832 153.718C99.5908 153.711 99.7177 153.855 99.9526 154.144C100.206 154.46 100.548 154.889 100.986 155.436C101.868 156.59 103.16 158.306 104.732 160.577C106.31 162.844 108.169 165.666 110.317 168.946C112.47 172.222 114.905 175.966 117.818 179.939C120.736 183.901 124.175 188.087 128.459 191.974C132.727 195.838 137.902 199.422 144.04 201.529C150.143 203.821 157.304 202.969 163.763 200.221C164.592 199.92 165.399 199.551 166.193 199.149C166.989 198.754 167.808 198.392 168.597 197.964C170.146 197.052 171.766 196.236 173.266 195.189C174.029 194.688 174.794 194.186 175.565 193.681C176.318 193.155 177.05 192.59 177.799 192.045C178.538 191.488 179.301 190.956 180.03 190.372C180.749 189.78 181.473 189.186 182.198 188.59C190.018 182.139 196.72 174.908 202.662 167.993L202.611 168.349C199.069 160.568 195.702 153.176 192.645 146.466L193.05 146.613C179.178 153.153 167.402 158.705 158.838 162.743L158.857 162.732C156.533 164.339 154.952 166.483 154.111 168.51C153.237 170.548 153.113 172.489 153.234 174.002C153.254 174.771 153.409 175.431 153.524 176.005C153.615 176.585 153.778 177.051 153.902 177.427C154.014 177.787 154.102 178.068 154.17 178.289C154.228 178.482 154.253 178.583 154.245 178.586Z" fill="#242426"/>
<path d="M158.756 162.571C158.734 162.581 158.595 162.32 158.348 161.816C158.095 161.315 157.733 160.573 157.229 159.636C156.218 157.777 154.694 155.063 152.114 152.295C149.542 149.514 145.646 147.13 141.621 144.069C139.606 142.537 137.608 140.717 135.859 138.572C134.092 136.439 132.515 134.05 130.973 131.579C129.411 129.113 128.032 126.639 126.322 124.525C124.632 122.393 122.819 120.472 120.982 118.771C119.146 117.07 117.28 115.574 115.412 114.378C113.581 113.138 111.56 112.6 109.701 112.365C105.944 111.972 102.882 112.721 100.888 113.375C98.8836 114.068 97.8801 114.712 97.8461 114.647C97.8334 114.625 98.0801 114.464 98.5635 114.172C99.0514 113.89 99.798 113.514 100.796 113.122C102.79 112.379 105.882 111.537 109.754 111.878C111.662 112.082 113.804 112.624 115.718 113.891C117.642 115.09 119.544 116.589 121.415 118.302C123.287 120.012 125.129 121.942 126.855 124.102C128.611 126.26 130.014 128.766 131.562 131.212C133.098 133.674 134.655 136.038 136.383 138.138C138.096 140.254 140.028 142.03 142.012 143.562C145.976 146.624 149.881 149.065 152.474 151.961C155.058 154.827 156.525 157.606 157.47 159.513C157.94 160.474 158.262 161.238 158.475 161.759C158.681 162.282 158.778 162.562 158.756 162.571Z" fill="#242426"/>
<path d="M92.674 131.724C92.4824 131.74 92.1668 129.913 91.9685 127.643C91.7705 125.374 91.7649 123.519 91.9551 123.503C92.147 123.487 92.4619 125.312 92.6606 127.583C92.8589 129.853 92.8651 131.705 92.674 131.724Z" fill="#FAFAFA"/>
<path d="M113.603 121.178C113.674 121.356 111.977 122.192 109.814 123.045C107.651 123.898 105.84 124.444 105.77 124.266C105.7 124.088 107.396 123.252 109.56 122.399C111.721 121.546 113.531 120.998 113.603 121.178Z" fill="#FAFAFA"/>
<path d="M108.211 150.815C108.034 150.891 107.037 149.026 105.981 146.645C104.926 144.263 104.213 142.271 104.388 142.193C104.563 142.115 105.561 143.983 106.617 146.364C107.673 148.744 108.386 150.738 108.211 150.815Z" fill="#FAFAFA"/>
<path d="M129.419 141.426C129.459 141.615 127.551 142.176 125.158 142.68C122.765 143.185 120.793 143.441 120.754 143.254C120.715 143.066 122.621 142.505 125.015 142.001C127.407 141.496 129.38 141.238 129.419 141.426Z" fill="#FAFAFA"/>
<path d="M123.297 167.333C123.105 167.314 123.166 165.192 123.434 162.596C123.7 159.997 124.07 157.907 124.259 157.927C124.451 157.947 124.39 160.068 124.124 162.665C123.859 165.262 123.489 167.353 123.297 167.333Z" fill="#FAFAFA"/>
<path d="M144.992 160.758C144.863 160.889 143.245 159.456 141.701 157.301C140.15 155.152 139.305 153.164 139.471 153.083C139.648 152.99 140.748 154.794 142.265 156.896C143.775 159.002 145.136 160.621 144.992 160.758Z" fill="#FAFAFA"/>
<path d="M139.558 179.332C139.538 179.524 137.97 179.511 136.059 179.306C134.144 179.1 132.611 178.78 132.631 178.589C132.653 178.397 134.221 178.41 136.132 178.615C138.045 178.821 139.579 179.142 139.558 179.332Z" fill="#FAFAFA"/>
<path d="M151.129 194.744C151.071 194.936 148.678 194.346 145.691 193.861C142.706 193.364 140.251 193.156 140.259 192.957C140.259 192.773 142.764 192.67 145.804 193.177C148.845 193.671 151.186 194.571 151.129 194.744Z" fill="#FAFAFA"/>
<path d="M166.261 183.968C166.429 184.06 165.492 186.134 164.167 188.601C162.842 191.07 161.632 192.998 161.463 192.908C161.293 192.817 162.231 190.742 163.556 188.274C164.881 185.804 166.092 183.877 166.261 183.968Z" fill="#FAFAFA"/>
<path d="M165.109 172.206C164.954 172.336 163.662 170.991 161.817 169.659C159.983 168.312 158.306 167.493 158.384 167.306C158.442 167.134 160.309 167.693 162.226 169.096C164.15 170.49 165.254 172.096 165.109 172.206Z" fill="#FAFAFA"/>
<path d="M176.824 175.238C176.628 175.205 176.832 173.153 176.898 170.625C176.975 168.097 176.887 166.039 177.085 166.016C177.268 165.992 177.67 168.059 177.593 170.645C177.523 173.23 177.006 175.272 176.824 175.238Z" fill="#FAFAFA"/>
<path d="M186.848 157.211C186.884 157.401 184.804 157.953 182.203 158.444C179.601 158.937 177.464 159.182 177.429 158.994C177.393 158.805 179.472 158.253 182.075 157.762C184.674 157.269 186.813 157.022 186.848 157.211Z" fill="#FAFAFA"/>
<path d="M191.029 172.069C191.148 172.218 189.66 173.617 187.705 175.196C185.749 176.775 184.066 177.932 183.946 177.784C183.825 177.634 185.313 176.234 187.269 174.657C189.224 173.079 190.907 171.92 191.029 172.069Z" fill="#FAFAFA"/>
<path d="M85.0212 261.947C84.8307 261.968 84.4727 259.988 84.222 257.528C83.9723 255.066 83.9236 253.055 84.1141 253.035C84.3053 253.016 84.6629 254.995 84.9139 257.457C85.1633 259.918 85.212 261.928 85.0212 261.947Z" fill="#FAFAFA"/>
<path d="M79.5066 272.869C79.493 273.061 77.3401 273.067 74.6955 272.883C72.0504 272.701 69.9178 272.398 69.9298 272.205C69.9434 272.014 72.0976 272.007 74.7434 272.191C77.3872 272.373 79.5202 272.678 79.5066 272.869Z" fill="#FAFAFA"/>
<path d="M74.0526 278.957C74.2441 278.94 74.6004 281.259 74.8502 284.134C75.0995 287.011 75.1463 289.355 74.9565 289.373C74.7646 289.388 74.4087 287.071 74.1581 284.193C73.9099 281.32 73.8614 278.975 74.0526 278.957Z" fill="#FAFAFA"/>
<path d="M64.6963 245.151C64.8586 245.268 63.6685 247.158 62.4054 249.589C61.1321 252.013 60.2627 254.069 60.0737 254.003C59.898 253.945 60.4914 251.744 61.7903 249.266C63.0814 246.785 64.5495 245.041 64.6963 245.151Z" fill="#FAFAFA"/>
<path d="M102.959 219.842C103.091 219.959 101.494 221.793 98.903 223.236C96.3236 224.696 93.9272 225.108 93.8942 224.933C93.8407 224.733 96.0788 224.04 98.5629 222.632C101.06 221.242 102.816 219.692 102.959 219.842Z" fill="#FAFAFA"/>
</svg>
