<svg width="14" height="18" viewBox="0 0 14 18" fill="none" xmlns="http://www.w3.org/2000/svg">
<path d="M7.54102 3.75226L6.44152 3.75001C3.93352 3.74401 1.75627 5.78176 1.73902 8.25001V11.0925C1.73902 11.685 1.66402 12.2633 1.34077 12.756L1.12552 13.0845C0.797766 13.5825 1.15027 14.25 1.73902 14.25H12.2615C12.8503 14.25 13.202 13.5825 12.875 13.0845L12.6598 12.756C12.3373 12.2633 12.2615 11.6843 12.2615 11.0918V8.25076C12.2315 5.78176 10.049 3.75826 7.54102 3.75226V3.75226Z" stroke="#242426" stroke-width="1.2" stroke-linecap="round" stroke-linejoin="round"/>
<path d="M9.25 14.25C9.25 14.8467 9.01295 15.419 8.59099 15.841C8.16903 16.2629 7.59674 16.5 7 16.5C6.40326 16.5 5.83097 16.2629 5.40901 15.841C4.98705 15.419 4.75 14.8467 4.75 14.25" stroke="#242426" stroke-width="1.2" stroke-linecap="round" stroke-linejoin="round"/>
<path d="M7 1.5C7.39783 1.5 7.77936 1.65804 8.06066 1.93934C8.34197 2.22064 8.5 2.60217 8.5 3V3.75H5.5V3C5.5 2.60217 5.65804 2.22064 5.93934 1.93934C6.22064 1.65804 6.60218 1.5 7 1.5Z" stroke="#242426" stroke-width="1.2" stroke-linecap="round" stroke-linejoin="round"/>
</svg>
