<svg width="14" height="18" viewBox="0 0 14 18" fill="none" xmlns="http://www.w3.org/2000/svg">
<path d="M11.3426 2.70225C11.4268 2.59083 11.4782 2.45811 11.4911 2.31904C11.504 2.17996 11.4777 2.04006 11.4154 1.91509C11.353 1.79012 11.257 1.68505 11.1381 1.61171C11.0192 1.53838 10.8823 1.49969 10.7426 1.5H5.93508C5.80316 1.50003 5.67358 1.53485 5.55941 1.60095C5.44524 1.66705 5.35053 1.7621 5.28484 1.8765L1.64509 8.2185C1.57976 8.33257 1.54555 8.4618 1.5459 8.59325C1.54625 8.72469 1.58114 8.85374 1.64708 8.96746C1.71301 9.08117 1.80768 9.17556 1.92158 9.24117C2.03549 9.30677 2.16464 9.34129 2.29609 9.34125H4.75009L2.43709 15.39C2.10334 16.155 3.00709 16.8548 3.61459 16.3013L13.0001 6.99825H8.09584L11.3418 2.70225H11.3426Z" stroke="#7F61E1" stroke-width="1.2" stroke-linecap="round" stroke-linejoin="round"/>
</svg>
