<svg width="30" height="25" viewBox="0 0 30 25" fill="none" xmlns="http://www.w3.org/2000/svg">
<path opacity="0.85" d="M20.5079 0L18.7314 0.651042C16.7318 1.38333 15.4337 2.14063 14.5744 2.93021C13.7151 3.71875 13.3085 4.58646 13.0993 5.24063C12.8891 5.89688 12.8054 6.27812 12.6638 6.47812C12.5372 6.65312 12.3205 6.86354 11.6232 7.06354C11.6114 7.05521 11.5266 7.00312 11.5234 6.99896H11.4902C10.9611 6.66831 10.3678 6.44672 9.74689 6.34792C7.96178 6.05521 6.093 6.81146 5.05348 8.43125L5.01915 8.46354C4.3306 9.60206 4.04781 10.9292 4.21456 12.2396C4.26927 12.6625 4.3787 13.0938 4.55034 13.5094C3.7537 13.5597 2.98211 13.7998 2.30382 14.2086C1.62553 14.6174 1.06146 15.1823 0.661515 15.8531H0.628259C-0.679459 18.0948 0.116543 20.9885 2.43804 22.2656H2.47237V22.2979C2.59359 22.3552 4.02254 23.0875 6.15951 23.7302C8.29649 24.3729 11.2885 25 15.0099 25C18.7314 25 21.7191 24.3979 23.8604 23.7625C25.977 23.1323 27.1667 22.5135 27.5819 22.2656L27.6151 22.2333C29.9034 20.9427 30.6747 18.1031 29.3584 15.9177H29.3916C28.8086 14.9059 27.8491 14.1489 26.7097 13.8021C26.7097 13.7979 26.6764 13.8063 26.6764 13.8021C26.5116 13.2142 26.2282 12.6639 25.8426 12.1832C25.4569 11.7026 24.9768 11.3011 24.43 11.0021C24.577 10.5469 24.665 10.0177 24.665 9.375C24.665 8.16667 24.2208 7.14896 23.6254 6.4125C23.0311 5.67604 22.3145 5.18333 21.7148 4.71979C21.1151 4.25625 20.6335 3.82917 20.3738 3.41771C20.1142 3.00729 19.9844 2.61563 20.1389 1.82292L20.5079 0ZM18.0942 3.32083C18.195 3.75521 18.3452 4.17917 18.5641 4.525C19.0704 5.32708 19.7495 5.83542 20.3738 6.31562C20.9982 6.79479 21.5807 7.25521 21.9498 7.71458C22.3177 8.175 22.5194 8.61458 22.5194 9.375C22.5194 9.875 22.4604 10.1802 22.3853 10.4167C19.4598 10.0021 16.9002 9.28542 15.0099 8.59375C14.6323 8.45521 14.3019 8.30937 13.9704 8.17083C14.1507 8.01562 14.3105 7.83333 14.4403 7.65C14.922 6.96979 14.9885 6.31146 15.144 5.82708C15.2996 5.34271 15.4755 4.95625 16.0495 4.42708C16.3928 4.10938 17.3475 3.69896 18.0942 3.32083ZM8.90798 8.3C9.38214 8.29688 9.86811 8.43958 10.3165 8.72396C10.9066 9.12292 12.1724 9.74896 14.2729 10.5146C16.945 11.4901 19.7228 12.167 22.5527 12.5323H22.587C23.3326 12.6219 23.9484 13.049 24.3303 13.6719C23.9484 13.7406 23.5546 13.8385 23.1899 13.9979C23.1363 14.0219 23.0773 14.0052 23.0225 14.0292C22.9796 14.0417 22.9721 14.0542 22.955 14.0625C22.9217 14.0792 22.8884 14.0792 22.8552 14.0948C22.8252 14.1073 22.7908 14.1438 22.7543 14.1604C22.6621 14.201 22.528 14.2542 22.3521 14.3229C22.0045 14.4656 21.4842 14.649 20.8094 14.8438C19.4598 15.2302 17.4988 15.625 15.0099 15.625C13.1615 15.625 11.5824 15.4219 10.3498 15.1688C9.96359 15.0802 9.59134 14.9812 9.24376 14.8771C8.5443 14.6604 7.8942 14.351 7.90278 14.3562C6.86326 13.676 6.44058 12.8583 6.32687 11.9792C6.21422 11.1 6.46633 10.1646 6.86326 9.50521C7.36639 8.71979 8.12055 8.30833 8.90798 8.3ZM4.58467 15.5604C5.09532 15.5229 5.63171 15.6458 6.12626 15.9177C6.13484 15.9219 6.15093 15.9469 6.15951 15.951C6.21852 15.9823 6.29361 16.0156 6.3612 16.0479C6.49529 16.1177 6.64977 16.1865 6.86326 16.276C7.2913 16.4552 7.8824 16.651 8.63978 16.8625C8.90798 16.9354 9.23517 17.0167 9.54521 17.0896C9.65892 17.1187 9.76298 17.1594 9.88099 17.1875C9.89279 17.1917 9.90244 17.1833 9.91424 17.1875C10.3412 17.2938 10.765 17.3865 11.1887 17.4479V17.4156C12.4521 17.6143 13.7301 17.7122 15.0099 17.7083C17.7294 17.7083 19.9008 17.2646 21.4134 16.8292C22.1718 16.6104 22.779 16.3781 23.1899 16.2115C23.3401 16.149 23.4248 16.0927 23.5257 16.0479H23.6254L23.6598 16.0156L23.8604 15.9177C25.1928 15.226 26.7934 15.6365 27.5486 16.9271V16.9594C28.2813 18.176 27.8586 19.751 26.5423 20.475H26.5091V20.5083C26.4254 20.5562 25.2185 21.1958 23.2564 21.7771C21.2964 22.3594 18.4965 22.9167 15.0099 22.9167C11.5234 22.9167 8.72882 22.3677 6.76242 21.7771C4.82283 21.1917 3.85089 20.6583 3.47756 20.475C3.4604 20.4667 3.45611 20.451 3.44431 20.4427C2.16126 19.7063 1.76326 18.1677 2.50562 16.8948C2.87788 16.2885 3.43572 15.8365 4.08047 15.6573C4.2446 15.6125 4.41303 15.5719 4.58467 15.5604Z" fill="#242426"/>
</svg>
