<svg width="18" height="18" viewBox="0 0 18 18" fill="none" xmlns="http://www.w3.org/2000/svg">
<path d="M1.5 4.5C1.5 3.70435 1.81607 2.94129 2.37868 2.37868C2.94129 1.81607 3.70435 1.5 4.5 1.5H13.5C14.2956 1.5 15.0587 1.81607 15.6213 2.37868C16.1839 2.94129 16.5 3.70435 16.5 4.5V13.5C16.5 14.2956 16.1839 15.0587 15.6213 15.6213C15.0587 16.1839 14.2956 16.5 13.5 16.5H4.5C3.70435 16.5 2.94129 16.1839 2.37868 15.6213C1.81607 15.0587 1.5 14.2956 1.5 13.5V4.5Z" stroke="#242426" stroke-width="1.3" stroke-linecap="round" stroke-linejoin="round"/>
<path d="M6.375 8.25C7.41053 8.25 8.25 7.41053 8.25 6.375C8.25 5.33947 7.41053 4.5 6.375 4.5C5.33947 4.5 4.5 5.33947 4.5 6.375C4.5 7.41053 5.33947 8.25 6.375 8.25Z" stroke="#242426" stroke-width="1.3" stroke-linecap="round" stroke-linejoin="round"/>
<path d="M10.8945 9.46573L4.5 16.5H13.5997C14.3689 16.5 15.1066 16.1944 15.6505 15.6505C16.1944 15.1066 16.5 14.3689 16.5 13.5997V13.5C16.5 13.1505 16.3688 13.0162 16.1325 12.7575L13.11 9.46123C12.9691 9.30756 12.7978 9.18495 12.6069 9.10121C12.416 9.01747 12.2097 8.97443 12.0013 8.97486C11.7928 8.97528 11.5867 9.01915 11.3962 9.10367C11.2056 9.18818 11.0347 9.31149 10.8945 9.46573V9.46573Z" stroke="#242426" stroke-width="1.3" stroke-linecap="round" stroke-linejoin="round"/>
</svg>
