<svg width="18" height="16" viewBox="0 0 18 16" fill="none" xmlns="http://www.w3.org/2000/svg">
<path d="M10.5 13.25C13.3282 13.25 14.7427 13.25 15.621 12.371C16.5 11.4927 16.5 10.0782 16.5 7.25C16.5 4.42175 16.5 3.00725 15.621 2.129C14.7427 1.25 13.3282 1.25 10.5 1.25H7.5C4.67175 1.25 3.25725 1.25 2.379 2.129C1.5 3.00725 1.5 4.42175 1.5 7.25C1.5 10.0782 1.5 11.4927 2.379 12.371C2.86875 12.8615 3.525 13.0783 4.5 13.1735" stroke="#242426" stroke-width="1.3" stroke-linecap="round" stroke-linejoin="round"/>
<path d="M10.4999 13.25C9.57294 13.25 8.55144 13.625 7.61919 14.1088C6.12069 14.8865 5.37144 15.2758 5.00244 15.0275C4.63344 14.78 4.70319 14.0113 4.84344 12.4745L4.87494 12.125" stroke="#242426" stroke-width="1.3" stroke-linecap="round"/>
</svg>
