<svg width="16" height="16" viewBox="0 0 16 16" fill="none" xmlns="http://www.w3.org/2000/svg">
<path d="M7.99953 10.6666C7.84376 10.667 7.69281 10.6127 7.57287 10.5133L3.57287 7.17998C3.43672 7.06682 3.35111 6.90421 3.33485 6.72793C3.3186 6.55165 3.37304 6.37612 3.4862 6.23998C3.59936 6.10384 3.76197 6.01822 3.93825 6.00197C4.11453 5.98571 4.29005 6.04015 4.4262 6.15331L7.99953 9.13998L11.5729 6.25998C11.6411 6.2046 11.7195 6.16325 11.8037 6.13829C11.888 6.11334 11.9763 6.10528 12.0637 6.11457C12.151 6.12386 12.2357 6.15033 12.3127 6.19244C12.3898 6.23456 12.4578 6.2915 12.5129 6.35998C12.5739 6.42853 12.6202 6.50895 12.6487 6.59619C12.6772 6.68344 12.6874 6.77564 12.6787 6.86702C12.6699 6.9584 12.6424 7.04698 12.5978 7.12721C12.5532 7.20745 12.4925 7.27762 12.4195 7.33331L8.41953 10.5533C8.29614 10.637 8.14827 10.6769 7.99953 10.6666Z" fill="#242426"/>
</svg>
