<svg width="109" height="110" viewBox="0 0 109 110" fill="none" xmlns="http://www.w3.org/2000/svg">
<path d="M42.8857 12.4393C42.8813 12.4225 43.1275 12.3524 43.6164 12.2297C44.1537 12.1023 44.8753 11.931 45.7928 11.7128C46.2739 11.6074 46.8071 11.4645 47.4036 11.3571C48.0117 11.2825 48.6704 11.2013 49.3811 11.113C50.0993 11.0268 50.8685 10.9353 51.69 10.838C52.5222 10.8221 53.4039 10.8053 54.3393 10.788C58.0687 10.7508 62.7079 11.1517 67.7865 12.8112C72.8478 14.4269 78.4012 17.1891 83.4886 21.6014C88.5084 26.04 93.0861 32.0894 95.8593 39.5181C96.4425 41.4061 97.1918 43.2856 97.5376 45.3076C97.732 46.3115 98.0208 47.3067 98.1422 48.337C98.2589 49.37 98.376 50.4098 98.4939 51.4577C98.7469 55.6525 98.6552 60.0445 97.6218 64.3894C96.6398 68.7301 95.0276 73.0423 92.7373 77.111C90.3676 81.1307 87.3477 84.8773 83.7341 88.108C80.1382 91.3532 75.9152 94.0612 71.2619 95.9209C70.1351 96.4754 68.9151 96.801 67.7203 97.1998C66.5259 97.6054 65.3157 97.978 64.0728 98.2489C61.5967 98.8061 59.0543 99.1574 56.4859 99.2879C50.9072 99.5791 45.3612 98.7613 40.2272 97.0546L40.6823 96.9809C36.1641 100.37 31.7283 103.695 27.4012 106.942L26.6148 107.531L26.6196 106.549C26.6581 100.686 26.6964 94.982 26.7327 89.466L26.9126 89.8388C21.2489 85.4083 16.8886 79.7839 14.0984 73.7857C12.7036 70.7899 11.6285 67.7154 11.0245 64.6265C10.6817 63.0895 10.3537 61.572 10.2481 60.0391C10.1657 59.2785 10.0848 58.5231 10.0036 57.7718C9.94307 57.0206 9.97635 56.269 9.95802 55.5257C9.83264 43.5543 14.5145 33.4351 20.0779 26.8687C22.8519 23.5442 25.7609 20.9136 28.5621 19.0091C29.2571 18.5274 29.9278 18.0633 30.5739 17.6155C31.258 17.2321 31.9136 16.8659 32.5435 16.5122C33.1725 16.1656 33.7737 15.8333 34.3482 15.5151C34.936 15.2306 35.5179 15.007 36.056 14.769C37.1433 14.3244 38.0781 13.8669 38.9331 13.5909C39.7781 13.3341 40.5005 13.1143 41.1003 12.9315C41.6523 12.7712 42.0903 12.6441 42.4283 12.5453C42.7289 12.462 42.8823 12.4264 42.8857 12.4393C42.8892 12.4522 42.7427 12.5135 42.4503 12.6222C42.1175 12.7404 41.6889 12.8925 41.1478 13.083C40.5561 13.2858 39.8467 13.5283 39.0161 13.813C38.1747 14.1088 37.2529 14.5891 36.183 15.0525C32.0179 17.0285 25.9201 20.5342 20.5259 27.2374C15.0977 33.7674 10.569 43.7628 10.7541 55.514C10.7741 56.243 10.7455 56.9809 10.808 57.7192C10.8919 58.4545 10.9761 59.1967 11.0602 59.943C11.1693 61.4474 11.5002 62.9351 11.8432 64.4416C12.4475 67.4697 13.5141 70.4816 14.8926 73.4113C17.6476 79.2782 21.9342 84.7719 27.4914 89.0984L27.6729 89.2402L27.6717 89.4725C27.6477 94.988 27.6227 100.69 27.5942 106.555L26.8156 106.163C31.1401 102.911 35.5703 99.5806 40.0868 96.1853L40.2937 96.0304L40.5435 96.1126C45.5639 97.7766 50.9831 98.5745 56.4352 98.2897C58.9464 98.1621 61.4303 97.8195 63.8533 97.2752C65.0676 97.0106 66.2497 96.6469 67.419 96.2507C68.5884 95.8601 69.7808 95.5448 70.8816 95.0013C75.4325 93.187 79.5628 90.5453 83.0837 87.3753C86.6213 84.2216 89.5818 80.5627 91.9107 76.6327C94.1583 72.6568 95.7475 68.4392 96.7226 64.1914C97.7469 59.9414 97.8488 55.6391 97.6179 51.5268C97.5056 50.4995 97.3953 49.48 97.2841 48.4676C97.1691 47.4562 96.8891 46.478 96.7014 45.4944C96.3747 43.5073 95.644 41.6615 95.0817 39.8051C92.3935 32.5027 87.9317 26.5355 83.0211 22.1338C78.0444 17.7581 72.5965 14.9884 67.6143 13.3432C62.617 11.6523 58.0355 11.1986 54.3387 11.1774C53.4128 11.1784 52.535 11.1789 51.7112 11.1802C50.894 11.2625 50.1288 11.3378 49.4149 11.409C48.7049 11.4791 48.0488 11.5445 47.4433 11.6032C46.8478 11.6938 46.3147 11.8214 45.8317 11.9094C44.9074 12.0867 44.1814 12.226 43.6417 12.3292C43.1454 12.4194 42.8902 12.456 42.8857 12.4393Z" fill="#242426"/>
</svg>
