<svg width="18" height="18" viewBox="0 0 18 18" fill="none" xmlns="http://www.w3.org/2000/svg">
<path d="M10.5 2.45175C10.5 1.926 10.074 1.5 9.54825 1.5H8.4525C7.926 1.5 7.5 1.926 7.5 2.45175C7.5 2.88525 7.203 3.25725 6.79875 3.41625C6.735 3.44175 6.67125 3.46875 6.609 3.49575C6.21075 3.66825 5.7375 3.61575 5.43 3.309C5.25153 3.13066 5.00955 3.03048 4.75725 3.03048C4.50495 3.03048 4.26297 3.13066 4.0845 3.309L3.309 4.0845C3.13066 4.26297 3.03048 4.50495 3.03048 4.75725C3.03048 5.00955 3.13066 5.25153 3.309 5.43V5.43C3.6165 5.7375 3.669 6.21 3.495 6.609C3.46766 6.67179 3.44141 6.73505 3.41625 6.79875C3.25725 7.203 2.88525 7.5 2.45175 7.5C1.926 7.5 1.5 7.926 1.5 8.45175V9.54825C1.5 10.074 1.926 10.5 2.45175 10.5C2.88525 10.5 3.25725 10.797 3.41625 11.2013C3.44175 11.265 3.46875 11.3287 3.495 11.391C3.66825 11.7892 3.61575 12.2625 3.309 12.57C3.13066 12.7485 3.03048 12.9904 3.03048 13.2427C3.03048 13.4951 3.13066 13.737 3.309 13.9155L4.0845 14.691C4.26297 14.8693 4.50495 14.9695 4.75725 14.9695C5.00955 14.9695 5.25153 14.8693 5.43 14.691C5.7375 14.3835 6.21 14.331 6.609 14.5043C6.67125 14.532 6.735 14.5582 6.79875 14.5837C7.203 14.7427 7.5 15.1148 7.5 15.5483C7.5 16.074 7.926 16.5 8.45175 16.5H9.54825C10.074 16.5 10.5 16.074 10.5 15.5483C10.5 15.1148 10.797 14.7428 11.2013 14.583C11.265 14.5583 11.3287 14.532 11.391 14.505C11.7892 14.331 12.2625 14.3842 12.5693 14.691C12.6576 14.7794 12.7626 14.8496 12.8781 14.8974C12.9936 14.9453 13.1174 14.9699 13.2424 14.9699C13.3674 14.9699 13.4912 14.9453 13.6067 14.8974C13.7222 14.8496 13.8271 14.7794 13.9155 14.691L14.691 13.9155C14.8693 13.737 14.9695 13.4951 14.9695 13.2427C14.9695 12.9904 14.8693 12.7485 14.691 12.57V12.57C14.3835 12.2625 14.331 11.79 14.5043 11.391C14.532 11.3287 14.5582 11.265 14.5837 11.2013C14.7427 10.797 15.1148 10.5 15.5483 10.5C16.074 10.5 16.5 10.074 16.5 9.54825V8.4525C16.5 7.92675 16.074 7.50075 15.5483 7.50075C15.1148 7.50075 14.7428 7.20375 14.583 6.7995C14.5579 6.73579 14.5316 6.67253 14.5043 6.60975C14.3318 6.2115 14.3842 5.73825 14.691 5.43075C14.8693 5.25228 14.9695 5.0103 14.9695 4.758C14.9695 4.5057 14.8693 4.26372 14.691 4.08525L13.9155 3.30975C13.737 3.13141 13.4951 3.03123 13.2427 3.03123C12.9904 3.03123 12.7485 3.13141 12.57 3.30975V3.30975C12.2625 3.61725 11.79 3.66975 11.391 3.4965C11.3282 3.46891 11.265 3.4424 11.2013 3.417C10.797 3.25725 10.5 2.88525 10.5 2.4525V2.45175Z" stroke="#242426" stroke-width="1.3"/>
<path d="M12 9C12 9.79565 11.6839 10.5587 11.1213 11.1213C10.5587 11.6839 9.79565 12 9 12C8.20435 12 7.44129 11.6839 6.87868 11.1213C6.31607 10.5587 6 9.79565 6 9C6 8.20435 6.31607 7.44129 6.87868 6.87868C7.44129 6.31607 8.20435 6 9 6C9.79565 6 10.5587 6.31607 11.1213 6.87868C11.6839 7.44129 12 8.20435 12 9V9Z" stroke="#242426" stroke-width="1.3"/>
</svg>
