<svg width="14" height="16" viewBox="0 0 14 16" fill="none" xmlns="http://www.w3.org/2000/svg">
<path d="M7.0013 8.00004C8.84225 8.00004 10.3346 6.50766 10.3346 4.66671C10.3346 2.82576 8.84225 1.33337 7.0013 1.33337C5.16035 1.33337 3.66797 2.82576 3.66797 4.66671C3.66797 6.50766 5.16035 8.00004 7.0013 8.00004Z" stroke="#EDE9F9" stroke-width="1.4"/>
<path d="M10.334 9.59998H10.5687C11.0561 9.60011 11.5266 9.77822 11.892 10.1008C12.2573 10.4234 12.4923 10.8684 12.5527 11.352L12.8134 13.4346C12.8368 13.6223 12.8201 13.8127 12.7643 13.9934C12.7085 14.174 12.6149 14.3408 12.4898 14.4825C12.3646 14.6242 12.2108 14.7377 12.0384 14.8155C11.866 14.8932 11.6791 14.9334 11.49 14.9333H2.51136C2.32228 14.9334 2.13535 14.8932 1.96299 14.8155C1.79062 14.7377 1.63676 14.6242 1.51161 14.4825C1.38646 14.3408 1.29288 14.174 1.23709 13.9934C1.18131 13.8127 1.16458 13.6223 1.18802 13.4346L1.44802 11.352C1.50849 10.8681 1.74364 10.423 2.10925 10.1004C2.47486 9.77775 2.94574 9.59979 3.43336 9.59998H3.66736" stroke="#EDE9F9" stroke-width="1.4" stroke-linecap="round" stroke-linejoin="round"/>
</svg>
